<svg id="Layer_1" data-name="Layer 1" xmlns="http://www.w3.org/2000/svg" viewBox="0 0 100 100"><title>Artboard 34</title><path d="M80.25,33.85h-2.5V27.38a1.5,1.5,0,0,0-1.5-1.5H59.44a1.5,1.5,0,0,0-1.5,1.5v6.48H39V27.38a1.5,1.5,0,0,0-1.5-1.5H20.73a1.5,1.5,0,0,0-1.5,1.5v6.48h-2.5a6.51,6.51,0,0,0-6.5,6.5V76a6.51,6.51,0,0,0,6.5,6.5H80.25a6.51,6.51,0,0,0,6.5-6.5V40.35A6.51,6.51,0,0,0,80.25,33.85Zm-19.31-5H74.75v5H60.94Zm-38.72,0H36v5H22.23ZM83.75,76a3.5,3.5,0,0,1-3.5,3.5H16.73a3.5,3.5,0,0,1-3.5-3.5V40.35a3.5,3.5,0,0,1,3.5-3.5H80.25a3.5,3.5,0,0,1,3.5,3.5Z"/><path d="M29.13,47.46a9.9,9.9,0,1,0,9.9,9.9A9.92,9.92,0,0,0,29.13,47.46Zm0,16.81a6.9,6.9,0,1,1,6.9-6.9A6.91,6.91,0,0,1,29.13,64.27Z"/><path d="M67.85,47.46a9.9,9.9,0,1,0,9.9,9.9A9.91,9.91,0,0,0,67.85,47.46Zm0,16.81a6.9,6.9,0,1,1,6.9-6.9A6.91,6.91,0,0,1,67.85,64.27Z"/><path d="M32.5,55.86H30.63V54a1.5,1.5,0,0,0-3,0v1.87H25.76a1.5,1.5,0,1,0,0,3h1.87v1.87a1.5,1.5,0,1,0,3,0V58.86H32.5a1.5,1.5,0,0,0,0-3Z"/><path d="M71.22,55.86H64.48a1.5,1.5,0,0,0,0,3h6.74a1.5,1.5,0,0,0,0-3Z"/></svg>