<svg id="Layer_1" data-name="Layer 1" xmlns="http://www.w3.org/2000/svg" viewBox="0 0 100 100"><title>Artboard 18</title><path d="M92,69.33a17.22,17.22,0,0,0-18,0,15.76,15.76,0,0,1-6.15,2.07l13.9-15.52a1.5,1.5,0,0,0-1.3-2.49l-55.78,7a1.5,1.5,0,0,0-1.19,2.08l3.06,7.16-.56-.3a17.22,17.22,0,0,0-18,0,1.5,1.5,0,1,0,1.48,2.61,14.22,14.22,0,0,1,15,0,18.12,18.12,0,0,0,9,2.53,18.12,18.12,0,0,0,9-2.53,14.22,14.22,0,0,1,15,0,17.22,17.22,0,0,0,18,0,14.22,14.22,0,0,1,15,0A1.5,1.5,0,1,0,92,69.33Zm-28,1.9a16.44,16.44,0,0,1-5-1.9,17.22,17.22,0,0,0-18,0,14.22,14.22,0,0,1-10.57,1.78l-3.42-8,49.83-6.25Z"/><path d="M92,79.33a17.22,17.22,0,0,0-18,0,14.22,14.22,0,0,1-15,0,17.22,17.22,0,0,0-18,0,14.22,14.22,0,0,1-15,0,17.22,17.22,0,0,0-18,0,1.5,1.5,0,1,0,1.48,2.61,14.22,14.22,0,0,1,15,0,18.12,18.12,0,0,0,9,2.53,18.12,18.12,0,0,0,9-2.53,14.22,14.22,0,0,1,15,0,17.22,17.22,0,0,0,18,0,14.22,14.22,0,0,1,15,0A1.5,1.5,0,1,0,92,79.33Z"/><path d="M48.56,53.4h.19l29.07-3.65a1.5,1.5,0,0,0,1.28-1.82C74.95,29.86,62.84,21.26,50.38,14.65a1.5,1.5,0,0,0-2.15,1.71c3,11.24,2.63,23-1.1,35.09a1.5,1.5,0,0,0,1.43,1.94Zm3.36-34.49C63.61,25.53,72.13,33.22,75.77,47L50.65,50.13A65.43,65.43,0,0,0,51.92,18.91Z"/><path d="M46.65,22.48a1.5,1.5,0,0,0-2.89-.2C40.29,32.41,33.61,42.74,23.32,53.86a1.5,1.5,0,0,0,1.1,2.52h.19L43.24,54a1.5,1.5,0,0,0,1.27-1.12C47.55,41,48.27,30.72,46.65,22.48Zm-4.8,28.69L28.23,52.88c7.32-8.33,12.66-16.29,16.17-24.1A77,77,0,0,1,41.85,51.18Z"/></svg>