<svg id="Layer_1" data-name="Layer 1" xmlns="http://www.w3.org/2000/svg" viewBox="0 0 100 100"><title>Artboard 35</title><path d="M19.63,55.87a1.5,1.5,0,0,0,.3,1.74h0L34.59,72.27l0,0,.08.08a1.48,1.48,0,0,0,.35.21l.08,0a1.49,1.49,0,0,0,.48.09h.08a1.5,1.5,0,0,0,.48-.09l.08,0a1.48,1.48,0,0,0,.42-.28l0,0,0,0,.07-.07a17,17,0,0,1,26.3,0l.07.07,0,0,0,0a1.48,1.48,0,0,0,.43.29l.07,0a1.4,1.4,0,0,0,1.05,0l.14-.08a1.45,1.45,0,0,0,.28-.16l.08-.08,0,0L80,57.61l0,0a1.48,1.48,0,0,0,.29-.44l0-.06a1.5,1.5,0,0,0,.1-.52s0,0,0,0a1.48,1.48,0,0,0-.1-.53v0l0-.09A33.67,33.67,0,0,0,51.49,37.14V33.94a8.92,8.92,0,0,1,.19-1.81A1.49,1.49,0,0,0,51,30.53a1.5,1.5,0,0,0-2.87.88,8.85,8.85,0,0,1,.37,2.53,1.5,1.5,0,0,0,0,.28v2.93A33.68,33.68,0,0,0,19.63,55.87ZM50,40.09A30.69,30.69,0,0,1,77.09,56.27L64.32,69a20,20,0,0,0-28.73,0L22.82,56.26A30.7,30.7,0,0,1,50,40.09Z"/><path d="M50,58.17a1.5,1.5,0,0,0,1.5-1.5v-3a1.5,1.5,0,0,0-3,0v3A1.5,1.5,0,0,0,50,58.17Z"/><path d="M62.93,22.38a1.5,1.5,0,0,0-.66,2.93,8.83,8.83,0,0,1,4.08,2.16,1.5,1.5,0,0,0,2-2.19A11.83,11.83,0,0,0,62.93,22.38Z"/><path d="M50,49.7a1.5,1.5,0,0,0,1.5-1.5V42.73a1.5,1.5,0,0,0-3,0V48.2A1.5,1.5,0,0,0,50,49.7Z"/><path d="M52.66,28.5A1.5,1.5,0,0,0,53.77,28a8.85,8.85,0,0,1,3.88-2.5,1.5,1.5,0,1,0-.91-2.86A11.85,11.85,0,0,0,51.55,26a1.5,1.5,0,0,0,1.11,2.51Z"/><path d="M69.17,33.94a1.5,1.5,0,0,0,3,0,11.85,11.85,0,0,0-.49-3.39,1.5,1.5,0,1,0-2.87.86A8.85,8.85,0,0,1,69.17,33.94Z"/><path d="M30.15,29.54a1.5,1.5,0,0,0-1.87,1,11.85,11.85,0,0,0-.49,3.39,1.5,1.5,0,0,0,3,0,8.85,8.85,0,0,1,.37-2.53A1.5,1.5,0,0,0,30.15,29.54Z"/><path d="M45.76,27.58a1.5,1.5,0,0,0,2.08-2.16,11.85,11.85,0,0,0-5.23-2.94,1.5,1.5,0,0,0-.76,2.9A8.84,8.84,0,0,1,45.76,27.58Z"/><path d="M32.44,28a1.49,1.49,0,0,0,1-.42,8.85,8.85,0,0,1,3.9-2.2,1.5,1.5,0,0,0-.76-2.9,11.85,11.85,0,0,0-5.23,2.94,1.5,1.5,0,0,0,1,2.58Z"/></svg>