<svg id="Layer_1" data-name="Layer 1" xmlns="http://www.w3.org/2000/svg" viewBox="0 0 100 100"><title>Artboard 21</title><path d="M77.37,43.6h0V22.72a4.63,4.63,0,0,0-4.63-4.63H55.81a4.65,4.65,0,0,0-4.53,3.68l-.69,3.33v0l-3,14.58h0l-.65,3.13a1.63,1.63,0,0,1-1.59,1.3H30.23V29.41a1.5,1.5,0,0,0-3,0V44.13H21.39a4.63,4.63,0,0,0-4.63,4.63V59A10.72,10.72,0,1,0,28.6,71.13H58.18A18.5,18.5,0,1,0,77.37,43.6ZM53.28,26.91H60.5V38.5H50.86Zm-32.73,50a7.72,7.72,0,1,1,4.74-9.83A7.67,7.67,0,0,1,20.55,76.91Zm36.24-8.79H28.61a10.69,10.69,0,0,0-8.85-9.07V48.75a1.63,1.63,0,0,1,1.63-1.63H45.3a4.65,4.65,0,0,0,4.53-3.68l.4-1.94H62A1.5,1.5,0,0,0,63.5,40V25.41a1.5,1.5,0,0,0-1.5-1.5H53.9l.32-1.52a1.63,1.63,0,0,1,1.59-1.3H72.73a1.63,1.63,0,0,1,1.63,1.63v1.19H69.18a1.5,1.5,0,0,0-1.5,1.5V40a1.5,1.5,0,0,0,1.5,1.5h5.18v1.84A18.46,18.46,0,0,0,56.78,68.13ZM74.35,26.91V38.5H70.68V26.91Zm15.09,37.6a15.52,15.52,0,1,1-12.59-18A15.52,15.52,0,0,1,89.45,64.51Z"/><circle cx="74.17" cy="61.83" r="5.04" transform="matrix(0.17, -0.98, 0.98, 0.17, 0.44, 124.18)"/><path d="M27.22,50.66a1.5,1.5,0,0,0-1.5,1.5v6a1.5,1.5,0,0,0,3,0v-6A1.5,1.5,0,0,0,27.22,50.66Z"/><path d="M33.84,50.66a1.5,1.5,0,0,0-1.5,1.5V62.5a1.5,1.5,0,0,0,3,0V52.16A1.5,1.5,0,0,0,33.84,50.66Z"/><path d="M40.46,50.66a1.5,1.5,0,0,0-1.5,1.5V62.5a1.5,1.5,0,0,0,3,0V52.16A1.5,1.5,0,0,0,40.46,50.66Z"/><circle cx="18" cy="69.62" r="2.91" transform="translate(-21.97 9.84) rotate(-19.27)"/></svg>