<?xml version="1.0" encoding="utf-8"?>
<!-- Generator: Adobe Illustrator 20.1.0, SVG Export Plug-In . SVG Version: 6.00 Build 0)  -->
<svg version="1.1" id="Layer_1" xmlns="http://www.w3.org/2000/svg" xmlns:xlink="http://www.w3.org/1999/xlink" x="0px" y="0px"
	 viewBox="0 0 100 100" style="enable-background:new 0 0 100 100;" xml:space="preserve">
<title>Artboard 10</title>
<path d="M25.5,20.7h24.2v7.2c-1.3,0-2.5,0.9-3,2.1l-2.5,6.5c0,0,0,0.1,0,0.1c-10.5,3.9-15.9,15.6-12.1,26.1c1.3,3.4,3.4,6.5,6.3,8.8
	l-4,4c-0.6-0.3-1.3-0.5-2-0.5c-2.6,0-4.7,2.1-4.7,4.7c0,2.6,2.1,4.7,4.7,4.7c2.6,0,4.7-2.1,4.7-4.7l0,0c0-0.7-0.2-1.4-0.5-2.1
	l4.4-4.4c6.4,3.8,14.3,3.8,20.7,0l4.4,4.4c-0.3,0.6-0.5,1.3-0.5,2.1c0,2.6,2.1,4.7,4.7,4.6c2.6,0,4.7-2.1,4.6-4.7
	c0-2.6-2.1-4.7-4.7-4.6c-0.7,0-1.4,0.2-2.1,0.5l-4-4c8.7-7.1,10.1-19.9,3-28.6c-2.3-2.8-5.3-5-8.8-6.3c0,0,0-0.1,0-0.1L55.7,30
	c-0.5-1.2-1.7-2.1-3-2.1v-7.2h24.2c0.8,0,1.5-0.7,1.5-1.5s-0.7-1.5-1.5-1.5H25.5c-0.8,0-1.5,0.7-1.5,1.5S24.7,20.7,25.5,20.7z
	 M32.3,81.4c-0.9,0-1.7-0.7-1.7-1.7c0-0.9,0.7-1.7,1.7-1.7c0.4,0,0.9,0.2,1.2,0.5l0,0c0.6,0.7,0.6,1.7,0,2.4
	C33.1,81.2,32.7,81.4,32.3,81.4L32.3,81.4z M68.9,78.5L68.9,78.5c0.7-0.7,1.7-0.7,2.4,0c0.7,0.7,0.7,1.7,0,2.4
	c-0.7,0.7-1.7,0.7-2.4,0c-0.3-0.3-0.5-0.7-0.5-1.2C68.4,79.3,68.6,78.8,68.9,78.5L68.9,78.5z M35,62.1c-3.5-8.9,0.8-19,9.7-22.5
	c1.6-0.6,3.3-1,5-1.2v25.3C44.7,63.6,39.8,63.1,35,62.1z M51.2,73.1c-5.8,0-11.1-2.9-14.4-7.6c4.7,0.8,9.5,1.3,14.3,1.3h0.1
	c4.8,0,9.6-0.4,14.3-1.3C62.3,70.2,56.9,73.1,51.2,73.1L51.2,73.1z M68.6,55.7c0,2.2-0.4,4.3-1.2,6.4c-4.8,1-9.7,1.5-14.7,1.6V38.4
	C61.6,39.2,68.5,46.7,68.6,55.7z M52.6,30.8c0.1,0,0.3,0.1,0.3,0.2l1.8,4.6c-2.3-0.4-4.7-0.4-7,0l1.8-4.7c0.1-0.1,0.2-0.2,0.3-0.2
	L52.6,30.8z"/>
</svg>
