<svg id="Layer_1" data-name="Layer 1" xmlns="http://www.w3.org/2000/svg" viewBox="0 0 100 100"><title>Artboard 29</title><path d="M94.64,60s0-.09,0-.13l-4.91-12.6a4.39,4.39,0,0,0-4.11-2.81h-11L77,38.52a4.49,4.49,0,0,0,.09-3.22H87.42a1.5,1.5,0,0,0,0-3H53.63a4.49,4.49,0,0,0-4.16,2.79l-.92,2.22a1.49,1.49,0,0,1-1.39.93h-26A4.48,4.48,0,0,0,17,41L9.43,59.29a4.5,4.5,0,0,0,4.16,6.21H62.83A4.49,4.49,0,0,0,67,62.72l3.14-7.59V67.86H51.94a1.5,1.5,0,0,0-1.5,1.5v5h-1a8,8,0,0,0-15.73,0H29.88a8,8,0,0,0-15.73,0H10.61V71.93a1.5,1.5,0,0,0-3,0v7.88a1.5,1.5,0,0,0,3,0V77.37h3.54a8,8,0,0,0,15.73,0h3.81a8,8,0,0,0,15.73,0H74.65a8,8,0,0,0,15.84-.69v.69A4.42,4.42,0,0,0,94.9,73V61.45a4.39,4.39,0,0,0-.23-1.35S94.65,60,94.64,60ZM22,80.88a5,5,0,1,1,5-5A5,5,0,0,1,22,80.88Zm19.54,0a5,5,0,1,1,5-5A5,5,0,0,1,41.56,80.88ZM64.21,61.57a1.5,1.5,0,0,1-1.39.93H13.59a1.5,1.5,0,0,1-1.39-2.07l7.53-18.27a1.49,1.49,0,0,1,1.39-.93h26a4.49,4.49,0,0,0,4.16-2.79l.92-2.22a1.49,1.49,0,0,1,1.39-.93H72.85a1.5,1.5,0,0,1,1.39,2.07ZM53.44,74.37V70.86h16.7V73a4.36,4.36,0,0,0,.25,1.42Zm29.08,6.51a5,5,0,1,1,5-5A5,5,0,0,1,82.52,80.88ZM91.9,73a1.42,1.42,0,0,1-1.42,1.42v.69a8,8,0,0,0-15.84-.69h-.1A1.42,1.42,0,0,1,73.13,73V48.84a1.42,1.42,0,0,1,1.42-1.42h11a1.41,1.41,0,0,1,1.32.9L91,58.89H78.48a1.5,1.5,0,0,0,0,3H91.9Z"/><path d="M25.78,45.39a1.5,1.5,0,0,0-2,.82L19.43,56.86A1.5,1.5,0,1,0,22.2,58l4.39-10.66A1.5,1.5,0,0,0,25.78,45.39Z"/><path d="M33.8,45.39a1.5,1.5,0,0,0-2,.82L27.45,56.86A1.5,1.5,0,1,0,30.22,58l4.39-10.66A1.5,1.5,0,0,0,33.8,45.39Z"/><path d="M41.82,45.39a1.5,1.5,0,0,0-2,.82L35.47,56.86A1.5,1.5,0,1,0,38.25,58l4.39-10.66A1.5,1.5,0,0,0,41.82,45.39Z"/><path d="M49.85,45.39a1.5,1.5,0,0,0-2,.82L43.5,56.86A1.5,1.5,0,1,0,46.27,58l4.39-10.66A1.5,1.5,0,0,0,49.85,45.39Z"/></svg>