<svg id="Layer_1" data-name="Layer 1" xmlns="http://www.w3.org/2000/svg" viewBox="0 0 100 100"><title>Artboard 7</title><path d="M14.71,72.11a1.5,1.5,0,0,0,1.6-.22l7.64-6.53a48.13,48.13,0,0,0,11.14,3.92l1.12,6.17a6.15,6.15,0,0,0,6.06,5.05H60a6.16,6.16,0,0,0,5.4-3.2L70,68.94c11.9-3,19.83-9,19.83-16.05,0-10.2-16.69-18.2-38-18.2-9.7,0-18.44,1.66-25.09,4.43l-1.82-6.56a3.84,3.84,0,0,0-3.69-2.81H17.66a3.84,3.84,0,0,0-3.83,3.83v19.3a9.34,9.34,0,0,0,.24,2.06,1.49,1.49,0,0,0-.24.8v15A1.5,1.5,0,0,0,14.71,72.11ZM62.8,75.86A3.16,3.16,0,0,1,60,77.5H42.26a3.15,3.15,0,0,1-3.1-2.59l-.91-5a77.76,77.76,0,0,0,13.58,1.16,77.23,77.23,0,0,0,14.28-1.29Zm-46-42.28a.83.83,0,0,1,.83-.83h3.56a.83.83,0,0,1,.8.61l2,7a24,24,0,0,0-7.15,5.28Zm35,4.11c19,0,35,7,35,15.2s-16,15.2-35,15.2-35-7-35-15.2S32.86,37.69,51.83,37.69Zm-35,22.41a21,21,0,0,0,4.35,3.67l-4.35,3.72Z"/><path d="M60.82,45c9.56,0,17,3.49,17,6.5a1.5,1.5,0,0,0,3,0c0-5.86-10.37-9.5-20-9.5a1.5,1.5,0,0,0,0,3Z"/></svg>