<svg id="Layer_1" data-name="Layer 1" xmlns="http://www.w3.org/2000/svg" viewBox="0 0 100 100"><title>Artboard 28</title><path d="M79.21,20.66h0l-1-1a21.13,21.13,0,0,0-29.89,0L13.91,54a8.5,8.5,0,0,0,0,12L33.86,86a8.51,8.51,0,0,0,12,0L80.25,51.58a21.16,21.16,0,0,0,0-29.89Zm-1,15.39h5.18a18.07,18.07,0,0,1-5.27,13.41l-6.3,6.3-2.68-2.68A1.5,1.5,0,0,0,67,55.21l2.68,2.68L58.27,69.33l-2.68-2.68a1.5,1.5,0,0,0-2.12,2.12l2.68,2.68L43.75,83.84a5.44,5.44,0,0,1-2.56,1.43v-4a1.5,1.5,0,0,0-3,0v3.89A5.43,5.43,0,0,1,36,83.84L16,63.89a5.45,5.45,0,0,1-1.33-2.22h3.89a1.5,1.5,0,0,0,0-3h-4A5.45,5.45,0,0,1,16,56.11L28.46,43.68l2.68,2.68a1.5,1.5,0,0,0,2.12-2.12l-2.68-2.68L42,30.12,44.7,32.8a1.5,1.5,0,1,0,2.12-2.12L44.14,28l6.26-6.26a18,18,0,0,1,12.82-5.31h0v4.63a1.5,1.5,0,1,0,3,0V16.69a18,18,0,0,1,9.8,5l-2.68,2.68a1.5,1.5,0,1,0,2.12,2.12l2.68-2.68a18,18,0,0,1,4.92,9.21H78.23a1.5,1.5,0,0,0,0,3Z"/><path d="M69.86,29a10.76,10.76,0,0,0-15.22,0L45,38.67h0L26.82,56.84a4.5,4.5,0,0,0,0,6.36l9.84,9.84h0a4.51,4.51,0,0,0,6.36,0L70.84,45.23a10.78,10.78,0,0,0,0-15.23Zm-29,41.91a1.5,1.5,0,0,1-2.12,0h0l-9.84-9.84a1.5,1.5,0,0,1,0-2.12L40.27,47.63l12,12ZM54.36,57.48l-12-12L46,41.85l12,12ZM68.72,43.11,60.13,51.7l-12-12,8.59-8.59a7.77,7.77,0,0,1,11,0l1,1A7.78,7.78,0,0,1,68.72,43.11Z"/></svg>