<svg id="Layer_1" data-name="Layer 1" xmlns="http://www.w3.org/2000/svg" viewBox="0 0 100 100"><title>Artboard 32</title><path d="M33.78,66.62l-3.44,5.1a3.52,3.52,0,1,0,2.49,1.68L37,67.21a81.08,81.08,0,0,0,12.54,1,81.08,81.08,0,0,0,12.54-1l4.18,6.19a3.66,3.66,0,1,0,2.49-1.68l-3.44-5.1C80,63.62,90,56.5,90,48c0-5.17-11.51-7.66-21.17-8.84a1.49,1.49,0,0,0-.59,0,19.75,19.75,0,0,0-37.47,0,1.48,1.48,0,0,0-.62-.05C20.54,40.34,9,42.83,9,48,9,56.5,19.12,63.62,33.78,66.62Zm15.77-1.47C33,65.16,18.57,60,13.75,53c8.25,3.77,25.43,4.91,35.79,4.91S77.09,56.79,85.34,53C80.52,60,66.07,65.16,49.55,65.16Zm0-36.45A16.78,16.78,0,0,1,66.29,44.78C65.12,45.61,59.35,47,49.55,47S34,45.61,32.8,44.78A16.78,16.78,0,0,1,49.55,28.71ZM12,48c0-1.16,4.43-4.07,18-5.79a19.76,19.76,0,0,0-.26,2.54,1.5,1.5,0,0,0,0,.33s0,.09,0,.14,0,.19,0,.28a1.5,1.5,0,0,0,1,1.4C34.13,49.78,45.61,50,49.55,50S65,49.78,68.36,46.89a1.5,1.5,0,0,0,1-1.4c0-.1,0-.19,0-.28s0-.09,0-.14a1.5,1.5,0,0,0,0-.33A19.76,19.76,0,0,0,69,42.2C82.61,43.92,87,46.83,87,48c0,2.35-13.24,6.93-37.5,6.93S12,50.35,12,48Z"/><path d="M46.11,31.83a7.55,7.55,0,0,0-7.54,7.54,1.5,1.5,0,0,0,3,0,4.54,4.54,0,0,1,4.54-4.54,1.5,1.5,0,0,0,0-3Z"/><path d="M47.5,76.58V87.5a1.5,1.5,0,0,0,3,0V76.58a1.5,1.5,0,0,0-3,0Z"/><path d="M53.54,72.9a1.5,1.5,0,0,0-1,1.89l2.89,9a1.5,1.5,0,1,0,2.86-.91l-2.89-9A1.5,1.5,0,0,0,53.54,72.9Z"/><path d="M42.57,73.87l-2.89,9a1.5,1.5,0,1,0,2.86.91l2.89-9a1.5,1.5,0,0,0-2.86-.91Z"/></svg>