<svg id="Layer_1" data-name="Layer 1" xmlns="http://www.w3.org/2000/svg" viewBox="0 0 100 100"><title>Artboard 31</title><path d="M53.42,41.72a6,6,0,1,0,4.23,1.75A5.95,5.95,0,0,0,53.42,41.72Zm2.11,8.1h0a3.06,3.06,0,0,1-4.22,0,3,3,0,1,1,4.22,0Z"/><path d="M79.67,19.33l-5.23,5.23c-6.11-3.29-19.54,4.18-23.32,8L37.26,46.39a8.86,8.86,0,0,0-9.79-.32l-6.1,3.74a8.19,8.19,0,0,0-1.51,12.77l1.66,1.66a1.5,1.5,0,0,0,2.12,0l5-5a7.57,7.57,0,0,0,2.15,4.38l2.29,2.29L29.2,69.8a1.5,1.5,0,1,0,2.12,2.12L35.24,68l2.29,2.29a7.56,7.56,0,0,0,4.38,2.16l-5,5a1.5,1.5,0,0,0,0,2.12l1.66,1.66h0a8.13,8.13,0,0,0,5.77,2.4,8.33,8.33,0,0,0,1-.06,8.14,8.14,0,0,0,6-3.85l3.74-6.1a8.86,8.86,0,0,0-.32-9.79L68.59,50c2.4-2.4,5.3-7.22,7.05-11.73,1.44-3.69,2.64-8.48.93-11.6l5.22-5.22a1.5,1.5,0,0,0-2.12-2.12ZM22.59,61.06l-.6-.6h0a5.19,5.19,0,0,1,1-8.09L29,48.63a5.87,5.87,0,0,1,6.05-.07Zm29.91,11-3.74,6.1a5.19,5.19,0,0,1-8.09,1l-.6-.6L52.56,66A5.87,5.87,0,0,1,52.49,72.09Zm14-24.2L46.19,68.17a4.63,4.63,0,0,1-6.54,0l-2.29-2.29,8.72-8.72A1.5,1.5,0,0,0,44,55l-8.72,8.72L33,61.48a4.63,4.63,0,0,1,0-6.54l5.45-5.45h0L53.24,34.65A17.37,17.37,0,0,1,55.18,33,57,57,0,0,0,68.09,45.95,17.36,17.36,0,0,1,66.47,47.88Zm6.38-10.69a41,41,0,0,1-3.1,6.25A54,54,0,0,1,57.68,31.37a41,41,0,0,1,6.25-3.1,19.73,19.73,0,0,1,6.74-1.56,4,4,0,0,1,2.86.87C74.91,29,74.66,32.55,72.85,37.19Z"/><path d="M25.94,65.3l-6.19,6.19a1.5,1.5,0,1,0,2.12,2.12l6.19-6.19a1.5,1.5,0,0,0-2.12-2.12Z"/><path d="M27.62,81.48a1.5,1.5,0,0,0,2.12,0l6.19-6.19a1.5,1.5,0,0,0-2.12-2.12l-6.19,6.19A1.5,1.5,0,0,0,27.62,81.48Z"/><path d="M26.81,74.31a1.5,1.5,0,0,0-2.12,0l-4.86,4.86A1.5,1.5,0,1,0,22,81.29l4.86-4.86A1.5,1.5,0,0,0,26.81,74.31Z"/></svg>