<svg id="Layer_1" data-name="Layer 1" xmlns="http://www.w3.org/2000/svg" viewBox="0 0 100 100"><title>Artboard 38</title><path d="M34.38,63.35H45.6V69.3H43.11a1.5,1.5,0,0,0,0,3h8.45a1.5,1.5,0,1,0,0-3h-3V63.35H64.3a6.51,6.51,0,0,0,6.5-6.5v-.8A9.78,9.78,0,0,0,62,46.29h0l-8.44-.72A3.62,3.62,0,0,1,50.32,43l-4-13.61a4.93,4.93,0,0,0-4.71-3.53H30.54A4.49,4.49,0,0,0,26,30.11L25,54.37a1.56,1.56,0,0,0,0,.17A9.46,9.46,0,0,0,34.38,63.35ZM29,30.24a1.5,1.5,0,0,1,1.5-1.43h11.1a1.91,1.91,0,0,1,1.83,1.37l.41,1.4-3,3A1.5,1.5,0,1,0,43,36.68l1.81-1.81,1,3.33-4,4a1.5,1.5,0,1,0,2.12,2.12l2.86-2.86.68,2.32A6.5,6.5,0,0,0,48,45.05L44.06,49a1.5,1.5,0,1,0,2.12,2.12L50,47.31a6.61,6.61,0,0,0,3.29,1.24l.87.07-1.85,1.85a1.5,1.5,0,1,0,2.12,2.12L58,49l3.65.31h.07L60,51.05a1.5,1.5,0,1,0,2.12,2.12l2.74-2.74a6.78,6.78,0,0,1,3,5.62v.8a3.5,3.5,0,0,1-3.5,3.5H34.38A6.46,6.46,0,0,1,28,54.41Z"/><path d="M26.74,71.5a6.37,6.37,0,1,0,6.37-6.37A6.37,6.37,0,0,0,26.74,71.5Zm9.74,0a3.37,3.37,0,1,1-3.37-3.37A3.37,3.37,0,0,1,36.47,71.5Z"/><path d="M55,71.63a6.37,6.37,0,1,0,6.37-6.37A6.37,6.37,0,0,0,55,71.63Zm9.74,0a3.37,3.37,0,1,1-3.37-3.37A3.37,3.37,0,0,1,64.75,71.63Z"/></svg>