<svg id="Layer_1" data-name="Layer 1" xmlns="http://www.w3.org/2000/svg" viewBox="0 0 100 100"><title>Artboard 9</title><path d="M15.87,41.08,39.72,51.44l-6,12.07-11.55,0a3,3,0,0,0-2.58,1.52l-.5.89a3,3,0,0,0,1.41,4.15L31.67,75l.17.05a8.62,8.62,0,0,0,2.29,2.85L31.45,82.7a1.5,1.5,0,1,0,2.62,1.46l2.69-4.83a8.63,8.63,0,0,0,2.84.5c.26,0,.51,0,.77,0l.12.1,10,6.93a3,3,0,0,0,4.27-1l.5-.89a3,3,0,0,0-.07-3l-6-9.79,7.09-11.5L77.61,75.4a4.8,4.8,0,0,0,6.92-1.61l1.12-2a4.8,4.8,0,0,0-.11-4.85L69,40l5.11-8.29c1.53-2.48,1.14-6.93.27-10.27-.41-1.57-1.58-5.33-3.6-6.45s-5.32-.25-7.19.33c-3.33,1-7.35,3.08-8.68,5.73l-4.33,8.69-31.65.1a4.8,4.8,0,0,0-4.17,2.46l-1.12,2a4.8,4.8,0,0,0,2.28,6.73Zm16,26.2a8.65,8.65,0,0,0-.91,4.12l-9.22-4,.46-.87,10,0ZM52.65,83.46l-.44.88L44,78.63a8.64,8.64,0,0,0,3-2.94l.43-.7ZM83,68.5a1.8,1.8,0,0,1,0,1.81l-1.12,2a1.8,1.8,0,0,1-2.59.6L57.83,58.08l9.36-15.19ZM57.55,22.41c.71-1.42,3.6-3.19,6.88-4.2,2.85-.88,4.49-.77,4.84-.57s1.37,1.59,2.15,4.59c.87,3.34.9,6.6.08,7.94l-5.41,8.78a1.49,1.49,0,0,0-.21.26L54.68,57.47,44.42,74.12a5.64,5.64,0,0,1-6.17,2.52L44,66.37a1.5,1.5,0,1,0-2.62-1.46L35.63,75.18a5.65,5.65,0,0,1-1.12-6.57ZM16.21,35.81l1.13-2a1.79,1.79,0,0,1,1.56-.92L49,32.77l-8,16-24-10.41a1.8,1.8,0,0,1-.85-2.52Z"/></svg>