<svg id="Layer_1" data-name="Layer 1" xmlns="http://www.w3.org/2000/svg" viewBox="0 0 100 100"><title>Artboard 24</title><path d="M20.59,26.8A12.67,12.67,0,0,0,7.94,39.45v1.12A12.67,12.67,0,0,0,20.59,53.23H54.4A12.67,12.67,0,0,0,67.05,40.58V39.45A12.67,12.67,0,0,0,54.4,26.8H43.8V22h2.07a1.5,1.5,0,0,0,0-3H29.13a1.5,1.5,0,1,0,0,3H31.2v4.8ZM34.2,22h6.6v4.8H34.2Zm20.2,7.8a9.66,9.66,0,0,1,9.65,9.65v1.12a9.66,9.66,0,0,1-9.65,9.65H20.59a9.66,9.66,0,0,1-9.65-9.65V39.45a9.66,9.66,0,0,1,9.65-9.65Z"/><path d="M93.87,48.66s0-.1,0-.15l-4.91-12.6A4.39,4.39,0,0,0,84.8,33.1h-11a4.42,4.42,0,0,0-4.42,4.42v19H51.16a1.5,1.5,0,0,0-1.5,1.5v5h-1a8,8,0,0,0-15.73,0h-3.8a8,8,0,0,0-15.73,0H9.83V60.6a1.5,1.5,0,0,0-3,0v7.88a1.5,1.5,0,0,0,3,0V66h3.54a8,8,0,0,0,15.73,0h3.8a8,8,0,0,0,15.73,0H73.87a8,8,0,0,0,15.84-.69V66a4.42,4.42,0,0,0,4.42-4.42V50.12a4.39,4.39,0,0,0-.23-1.35S93.88,48.7,93.87,48.66ZM21.24,69.56a5,5,0,1,1,5-5A5,5,0,0,1,21.24,69.56Zm19.54,0a5,5,0,0,1-5-5h0a5,5,0,1,1,5,5ZM52.66,63V59.53h16.7v2.1A4.36,4.36,0,0,0,69.61,63Zm29.08,6.51a5,5,0,1,1,5-5A5,5,0,0,1,81.74,69.56Zm9.39-7.93A1.42,1.42,0,0,1,89.71,63v.69A8,8,0,0,0,73.87,63h-.1a1.42,1.42,0,0,1-1.42-1.42V37.52a1.42,1.42,0,0,1,1.42-1.42h11a1.41,1.41,0,0,1,1.32.9l4.11,10.56H77.7a1.5,1.5,0,0,0,0,3H91.13Z"/><path d="M14.93,40.32a1.5,1.5,0,0,0,3,0,4.72,4.72,0,0,1,4.71-4.71,1.5,1.5,0,0,0,0-3A7.72,7.72,0,0,0,14.93,40.32Z"/></svg>