<svg id="Layer_1" data-name="Layer 1" xmlns="http://www.w3.org/2000/svg" viewBox="0 0 100 100"><title>Artboard 3</title><path d="M11.38,71.64a1.5,1.5,0,0,0,1.5-1.5V68.22h5.44a6.65,6.65,0,0,0,12.92,0H66.62a6.65,6.65,0,1,0,0-3H62.78A2.18,2.18,0,0,1,60.6,63V37.61a2.18,2.18,0,0,1,2.18-2.18h12A3.77,3.77,0,0,1,78,37.35l7.56,14.43a2.17,2.17,0,0,1,0,.42V63a2.18,2.18,0,0,1-2.18,2.18,1.5,1.5,0,0,0,0,3A5.19,5.19,0,0,0,88.56,63V52.21a5.19,5.19,0,0,0-.18-1.34,1.5,1.5,0,0,0-.12-.31L80.67,36a6.7,6.7,0,0,0-5.86-3.62h-12a5.19,5.19,0,0,0-5.18,5.18V63a5.12,5.12,0,0,0,.5,2.18H31.28a6.66,6.66,0,0,0-13,0H12.88V63.3a1.5,1.5,0,0,0-3,0v6.85A1.5,1.5,0,0,0,11.38,71.64ZM73.08,63a3.66,3.66,0,1,1-3.66,3.66A3.67,3.67,0,0,1,73.08,63ZM24.77,63a3.66,3.66,0,1,1-3.66,3.66A3.67,3.67,0,0,1,24.77,63Z"/><path d="M18,48.15l2.1.88v0c1.8,3,4.05,6.76,8.23,8.5s9.15,1.11,12.85.26l2.11.88a5.82,5.82,0,0,0,7.62-3.14L54.4,47.1a5.83,5.83,0,0,0-3.14-7.62l-2.1-.88v0c-1.8-3-4.05-6.76-8.23-8.5S31.76,29,28.06,29.83l-2.11-.88a5.82,5.82,0,0,0-7.62,3.14l-3.52,8.45A5.83,5.83,0,0,0,18,48.15Zm-.37-6.46,3.52-8.45a2.82,2.82,0,0,1,3.69-1.52l2.56,1.07a1.5,1.5,0,0,0,.93.07c3.3-.81,8-1.46,11.46,0,3.27,1.36,5.15,4.5,6.81,7.27l.27.45a1.5,1.5,0,0,0,.71.61l2.56,1.07a2.83,2.83,0,0,1,1.52,3.69L48.11,54.4a2.83,2.83,0,0,1-3.69,1.52l-2.56-1.07a1.5,1.5,0,0,0-.93-.07c-3.3.81-8,1.46-11.46,0-3.27-1.36-5.15-4.5-6.81-7.27l-.27-.45a1.5,1.5,0,0,0-.71-.61l-2.56-1.07a2.83,2.83,0,0,1-1.52-3.69Z"/><path d="M66.81,48.25a1.5,1.5,0,0,0,0,3H79.23a1.5,1.5,0,0,0,0-3Z"/></svg>