<svg id="Layer_1" data-name="Layer 1" xmlns="http://www.w3.org/2000/svg" viewBox="0 0 100 100"><title>Artboard 49</title><path d="M12.5,28.23v27.6a1.5,1.5,0,0,0,1.5,1.5H87.5a1.5,1.5,0,0,0,1.5-1.5V28.23a1.5,1.5,0,0,0-1.5-1.5H14A1.5,1.5,0,0,0,12.5,28.23Zm3,1.5H86v24.6H15.5Z"/><path d="M17.75,66.32A5.25,5.25,0,1,0,23,71.57,5.26,5.26,0,0,0,17.75,66.32Zm0,7.5A2.25,2.25,0,1,1,20,71.57,2.25,2.25,0,0,1,17.75,73.82Z"/><path d="M30.56,66.32a5.25,5.25,0,1,0,5.25,5.25A5.26,5.26,0,0,0,30.56,66.32Zm0,7.5a2.25,2.25,0,1,1,2.25-2.25A2.25,2.25,0,0,1,30.56,73.82Z"/><path d="M70.94,66.32a5.25,5.25,0,1,0,5.25,5.25A5.26,5.26,0,0,0,70.94,66.32Zm0,7.5a2.25,2.25,0,1,1,2.25-2.25A2.25,2.25,0,0,1,70.94,73.82Z"/><path d="M83.75,66.32A5.25,5.25,0,1,0,89,71.57,5.26,5.26,0,0,0,83.75,66.32Zm0,7.5A2.25,2.25,0,1,1,86,71.57,2.25,2.25,0,0,1,83.75,73.82Z"/><path d="M22.5,33.67a1.5,1.5,0,0,0-1.5,1.5v14.1a1.5,1.5,0,0,0,3,0V35.17A1.5,1.5,0,0,0,22.5,33.67Z"/><path d="M30.63,33.67a1.5,1.5,0,0,0-1.5,1.5v14.1a1.5,1.5,0,0,0,3,0V35.17A1.5,1.5,0,0,0,30.63,33.67Z"/><path d="M38.75,33.67a1.5,1.5,0,0,0-1.5,1.5v14.1a1.5,1.5,0,0,0,3,0V35.17A1.5,1.5,0,0,0,38.75,33.67Z"/><path d="M46.88,33.67a1.5,1.5,0,0,0-1.5,1.5v14.1a1.5,1.5,0,0,0,3,0V35.17A1.5,1.5,0,0,0,46.88,33.67Z"/><path d="M55,33.67a1.5,1.5,0,0,0-1.5,1.5v14.1a1.5,1.5,0,0,0,3,0V35.17A1.5,1.5,0,0,0,55,33.67Z"/><path d="M63.13,33.67a1.5,1.5,0,0,0-1.5,1.5v14.1a1.5,1.5,0,0,0,3,0V35.17A1.5,1.5,0,0,0,63.13,33.67Z"/><path d="M71.26,33.67a1.5,1.5,0,0,0-1.5,1.5v14.1a1.5,1.5,0,0,0,3,0V35.17A1.5,1.5,0,0,0,71.26,33.67Z"/><path d="M79.38,33.67a1.5,1.5,0,0,0-1.5,1.5v14.1a1.5,1.5,0,0,0,3,0V35.17A1.5,1.5,0,0,0,79.38,33.67Z"/><path d="M92.67,56.95a1.5,1.5,0,0,0-1.5,1.5v2.42H10V58.45a1.5,1.5,0,0,0-3,0v7.83a1.5,1.5,0,0,0,3,0V63.86H38.64v7.7a1.5,1.5,0,0,0,1.5,1.5H60.76a1.5,1.5,0,0,0,1.5-1.5v-7.7H91.17v2.42a1.5,1.5,0,0,0,3,0V58.45A1.5,1.5,0,0,0,92.67,56.95ZM59.26,70.07H41.64v-6.2H59.26Z"/></svg>