<svg id="Layer_1" data-name="Layer 1" xmlns="http://www.w3.org/2000/svg" viewBox="0 0 100 100"><title>Artboard 22</title><path d="M40,69.25H58.36a4.5,4.5,0,0,0,4.5-4.5V55a4.5,4.5,0,0,0-4.5-4.5H40a4.5,4.5,0,0,0-4.5,4.5v9.75A4.5,4.5,0,0,0,40,69.25ZM38.49,55A1.5,1.5,0,0,1,40,53.5H58.36a1.5,1.5,0,0,1,1.5,1.5v9.75a1.5,1.5,0,0,1-1.5,1.5H40a1.5,1.5,0,0,1-1.5-1.5Z"/><path d="M87,10.31,62.64,15.72a4,4,0,0,0-4.16-1.64L38.14,18.6a4,4,0,0,0-3.08,3.24L10.72,27.26a1.5,1.5,0,1,0,.65,2.93l24.35-5.41a4,4,0,0,0,4.15,1.64L45,25.27,41,41H21.18a6.51,6.51,0,0,0-6.5,6.5v31.9a6.51,6.51,0,0,0,6.5,6.5h56a6.51,6.51,0,0,0,6.5-6.5V47.47a6.51,6.51,0,0,0-6.5-6.5H58.43L54.34,24.84a4.75,4.75,0,0,0-.67-1.5l6.55-1.46h0a4,4,0,0,0,3.07-3.24l24.34-5.41A1.5,1.5,0,0,0,87,10.31ZM17.68,53.5h7.68a1.5,1.5,0,0,1,1.5,1.5v9.75a1.5,1.5,0,0,1-1.5,1.5H17.68Zm63,12.75H73a1.5,1.5,0,0,1-1.5-1.5V55A1.5,1.5,0,0,1,73,53.5h7.68ZM77.18,44a3.5,3.5,0,0,1,3.5,3.5v3H73a4.5,4.5,0,0,0-4.5,4.5v9.75a4.5,4.5,0,0,0,4.5,4.5h7.68V79.38a3.5,3.5,0,0,1-3.5,3.5h-56a3.5,3.5,0,0,1-3.5-3.5V69.25h7.68a4.5,4.5,0,0,0,4.5-4.5V55a4.5,4.5,0,0,0-4.5-4.5H17.68v-3a3.5,3.5,0,0,1,3.5-3.5ZM55.33,41H44.11L48,25.58a1.76,1.76,0,0,1,1.12-1.22l.1,0a1.72,1.72,0,0,1,2.21,1.25Zm4.23-22h0L49,21.31l-.39.09-9.39,2.09a1,1,0,1,1-.43-2L59.13,17l.22,0a1,1,0,0,1,1,.78h0A1,1,0,0,1,59.57,19Z"/><path d="M21.36,76a1.5,1.5,0,0,0,1.5,1.5H76.08a1.5,1.5,0,0,0,0-3H22.86A1.5,1.5,0,0,0,21.36,76Z"/></svg>