<svg id="Layer_1" data-name="Layer 1" xmlns="http://www.w3.org/2000/svg" viewBox="0 0 100 100"><title>Artboard 37</title><path d="M92.7,68.63H8.49a1.5,1.5,0,1,0,0,3H92.7a1.5,1.5,0,0,0,0-3Z"/><path d="M8.55,39.37v19a5.24,5.24,0,0,0,5.24,5.24h7a6.5,6.5,0,0,0,12.64,0H68.81a6.5,6.5,0,0,0,12.64,0h6.79v-.07a5,5,0,0,0,4.31-5.85L89.17,38.47A5.24,5.24,0,0,0,84,34.14H70.56l5.76-5.76a1.5,1.5,0,0,0,0-2.12L68,17.92a1.5,1.5,0,0,0-2.12,0l-8.34,8.34a1.5,1.5,0,0,0,0,2.12l5.76,5.76H13.79A5.24,5.24,0,0,0,8.55,39.37Zm3,4.7a.2.2,0,0,1,.2-.2h6.6a.2.2,0,0,1,.2.2v6.47a.2.2,0,0,1-.2.2h-6.6a.2.2,0,0,1-.2-.2ZM27.13,65.62a3.5,3.5,0,0,1-3.15-2h6.3A3.5,3.5,0,0,1,27.13,65.62Zm28.17-5H47.14V43.88H55.3Zm19.83,5a3.5,3.5,0,0,1-3.15-2h6.3A3.5,3.5,0,0,1,75.13,65.62ZM87.11,44l1.14,6.47a.2.2,0,0,1-.19.23H81.5a.2.2,0,0,1-.19-.16l-1.14-6.47a.2.2,0,0,1,.19-.23h6.55A.2.2,0,0,1,87.11,44ZM60.71,27.31l6.21-6.21,6.21,6.21-6.21,6.21Zm6.15,9.82H84A2.24,2.24,0,0,1,86.22,39l.29,1.66a.2.2,0,0,1-.19.23H78.06l-.16,0-.13,0-.13.07-.12.07-.11.09-.11.09-.1.11-.09.11-.08.13-.06.12s0,.09,0,.13,0,.1,0,.15,0,.08,0,.12a1.48,1.48,0,0,0,0,.17v0s0,.08,0,.12,0,.09,0,.14L78.6,52.5h0a1.48,1.48,0,0,0,.16.45l0,.06a1.5,1.5,0,0,0,.29.34l.06.05a1.48,1.48,0,0,0,.39.22l.06,0a1.48,1.48,0,0,0,.46.08h8.59a.2.2,0,0,1,.19.16l.76,4.31a2,2,0,0,1-2,2.39H58.3V42.38a1.5,1.5,0,0,0-1.5-1.5H45.64a1.5,1.5,0,0,0-1.5,1.5V60.61H13.79a2.24,2.24,0,0,1-2.24-2.24V53.94a.2.2,0,0,1,.2-.2h8.1a1.7,1.7,0,0,0,1.7-1.7V42.57a1.7,1.7,0,0,0-1.7-1.7h-8.1a.2.2,0,0,1-.2-.2v-1.3a2.24,2.24,0,0,1,2.24-2.24Z"/><path d="M61.92,43.88h10a1.5,1.5,0,0,0,0-3h-10a1.5,1.5,0,0,0,0,3Z"/><path d="M61.92,53.74h10a1.5,1.5,0,0,0,0-3h-10a1.5,1.5,0,0,0,0,3Z"/><path d="M27.14,43.88h10a1.5,1.5,0,0,0,0-3h-10a1.5,1.5,0,0,0,0,3Z"/><path d="M27.14,53.75h10a1.5,1.5,0,0,0,0-3h-10a1.5,1.5,0,0,0,0,3Z"/></svg>