<svg id="Layer_1" data-name="Layer 1" xmlns="http://www.w3.org/2000/svg" viewBox="0 0 100 100"><title>Artboard 20</title><path d="M58.58,29l-5-8.06,0,0-.11-.14-.08-.09-.12-.1-.1-.09L53,20.46l-.12-.07-.13,0-.14,0-.12,0-.18,0H30a4.5,4.5,0,0,0-4.5,4.5V83.67a4.5,4.5,0,0,0,4.5,4.5H69a4.5,4.5,0,0,0,4.5-4.5V33.54a4.5,4.5,0,0,0-2.81-4.17L72,26.44l.47.21a1.5,1.5,0,1,0,1.23-2.73l-9.41-4.25a1.5,1.5,0,1,0-1.23,2.73l.47.21L60.64,29Zm-7.14-5.77L55,29H45.78a1.49,1.49,0,0,1-1.27-.71l-3.16-5.06Zm14.83.58,3,1.36L67.55,29H63.93ZM61.57,32H69a1.5,1.5,0,0,1,1.5,1.5V83.67a1.5,1.5,0,0,1-1.5,1.5H30a1.5,1.5,0,0,1-1.5-1.5V24.77a1.5,1.5,0,0,1,1.5-1.5h7a1.49,1.49,0,0,1,1.27.71L42,29.93h0A4.47,4.47,0,0,0,45.78,32H61.57Z"/><path d="M36.38,41.27a1.5,1.5,0,0,0-2.12,2.12L41,50.1V67.24l-6.57,6.57a1.5,1.5,0,1,0,2.12,2.12l7-7h12.5l7,7a1.5,1.5,0,0,0,2.12-2.12L58,66.63V50.44l7-7A1.5,1.5,0,0,0,63,41.27l-7,7H43.42Zm7.58,10H55V65.89H44Z"/></svg>