<svg id="Layer_1" data-name="Layer 1" xmlns="http://www.w3.org/2000/svg" viewBox="0 0 100 100"><title>Artboard 50</title><path d="M17.75,63.81A5.25,5.25,0,1,0,23,69.06,5.26,5.26,0,0,0,17.75,63.81Zm0,7.5A2.25,2.25,0,1,1,20,69.06,2.25,2.25,0,0,1,17.75,71.31Z"/><path d="M30.56,63.81a5.25,5.25,0,1,0,5.25,5.25A5.26,5.26,0,0,0,30.56,63.81Zm0,7.5a2.25,2.25,0,1,1,2.25-2.25A2.25,2.25,0,0,1,30.56,71.31Z"/><path d="M70.94,63.81a5.25,5.25,0,1,0,5.25,5.25A5.26,5.26,0,0,0,70.94,63.81Zm0,7.5a2.25,2.25,0,1,1,2.25-2.25A2.25,2.25,0,0,1,70.94,71.31Z"/><path d="M83.75,63.81A5.25,5.25,0,1,0,89,69.06,5.26,5.26,0,0,0,83.75,63.81Zm0,7.5A2.25,2.25,0,1,1,86,69.06,2.25,2.25,0,0,1,83.75,71.31Z"/><path d="M92.67,54.44a1.5,1.5,0,0,0-1.5,1.5v2.42H85.63l4.59-20.5A1.5,1.5,0,0,0,88.75,36h-.54c-1.16-5.91-9.1-10.35-19-10.35A26.91,26.91,0,0,0,56,28.88c-4.25-3.5-11.07-5.72-18.9-5.72C24.75,23.16,14.9,28.7,13.71,36h-1a1.5,1.5,0,0,0-1.46,1.83l4.59,20.5H10V55.94a1.5,1.5,0,0,0-3,0v7.83a1.5,1.5,0,0,0,3,0V61.36H38.65v7.7a1.5,1.5,0,0,0,1.5,1.5H60.76a1.5,1.5,0,0,0,1.5-1.5v-7.7H91.17v2.42a1.5,1.5,0,1,0,3,0V55.94A1.5,1.5,0,0,0,92.67,54.44ZM69.18,28.68c7.85,0,14.59,3.24,15.94,7.35H60.5a10.62,10.62,0,0,0-2.29-4.94A24.48,24.48,0,0,1,69.18,28.68ZM37.1,26.16c10.2,0,18.93,4.39,20.31,9.87H16.8C18.17,30.55,26.9,26.16,37.1,26.16ZM59.26,67.56H41.65v-6.2H59.26Zm23.29-9.2H19L14.63,39H86.88Z"/><path d="M26,30.44,23.9,31.73a1.5,1.5,0,1,0,1.54,2.57L27.58,33A1.5,1.5,0,1,0,26,30.44Z"/><path d="M38.75,30l-2.64-1.26a1.5,1.5,0,0,0-1.29,2.71l2.64,1.26A1.5,1.5,0,1,0,38.75,30Z"/><path d="M46.41,30.07l-2.18,1.31A1.5,1.5,0,0,0,45.77,34L48,32.64a1.5,1.5,0,1,0-1.54-2.57Z"/><path d="M66,34.51a1.5,1.5,0,0,0,.54-.1l1.67-.64A1.5,1.5,0,1,0,67.13,31l-1.67.64a1.5,1.5,0,0,0,.54,2.9Z"/><path d="M73.41,33.7l1.63.72a1.5,1.5,0,0,0,1.21-2.74L74.62,31a1.5,1.5,0,0,0-1.21,2.74Z"/></svg>