<svg id="Layer_1" data-name="Layer 1" xmlns="http://www.w3.org/2000/svg" viewBox="0 0 100 100"><title>Artboard 17</title><path d="M58.13,79.57a1.5,1.5,0,0,0,1.5-1.5V72.65a1.5,1.5,0,0,0-3,0v5.42A1.5,1.5,0,0,0,58.13,79.57Z"/><path d="M47.09,78.38a1.5,1.5,0,0,0,1.9-.94l1.58-4.68a1.5,1.5,0,1,0-2.84-1l-1.58,4.68A1.5,1.5,0,0,0,47.09,78.38Z"/><path d="M67.39,77.44a1.5,1.5,0,1,0,2.84-1L68.65,71.8a1.5,1.5,0,1,0-2.84,1Z"/><path d="M55.55,46.87,54,45.32a1.5,1.5,0,0,0-2.12,2.12L53.43,49a5.17,5.17,0,0,0,0,5.08l-1.51,1.51A1.5,1.5,0,1,0,54,57.7l1.48-1.48a5.18,5.18,0,0,0,5.21,0l1.55,1.55a1.5,1.5,0,0,0,2.12-2.12l-1.55-1.55a5.18,5.18,0,0,0,0-5.21l1.58-1.58a1.5,1.5,0,0,0-2.12-2.12l-1.61,1.61a5.17,5.17,0,0,0-5.08,0Zm5,4.69a2.38,2.38,0,1,1-2.38-2.38A2.38,2.38,0,0,1,60.51,51.56Z"/><path d="M35,24.95a1.5,1.5,0,0,0-1.05-1.84,8.33,8.33,0,0,0-7.2,1.17,9.07,9.07,0,0,0-3.59,7.07,1.5,1.5,0,0,0,1.42,1.58h.08a1.5,1.5,0,0,0,1.5-1.42,6.14,6.14,0,0,1,2.35-4.8,5.38,5.38,0,0,1,4.65-.7A1.5,1.5,0,0,0,35,24.95Z"/><path d="M30.74,37.64a1.5,1.5,0,1,0-1.69-2.48,6.33,6.33,0,0,0-2.6,7.44,6.08,6.08,0,0,0,5.75,4.19l.45,0a1.5,1.5,0,0,0-.22-3,3.08,3.08,0,0,1-3.14-2.17A3.32,3.32,0,0,1,30.74,37.64Z"/><path d="M15,39.42a11.52,11.52,0,0,0-.61,3.73A11.73,11.73,0,0,0,26.11,54.86a11.46,11.46,0,0,0,2-.17,8.55,8.55,0,0,0,5.74,2.16H34a7.61,7.61,0,0,0,6.31-3,1.5,1.5,0,1,0-2.43-1.77,4.78,4.78,0,0,1-4,1.72,5.13,5.13,0,0,1-4-1.66,1.5,1.5,0,0,0-1.61-.61,8.68,8.68,0,0,1-10.87-8.44,8.6,8.6,0,0,1,.91-3.85,1.5,1.5,0,0,0-.87-2.09,7,7,0,0,1,3.8-13.51A1.5,1.5,0,0,0,23,22.63a11,11,0,0,1,20.22-2.26,1.5,1.5,0,0,0,2.16.53,7.62,7.62,0,0,1,11.82,5.47H53.49a1.5,1.5,0,0,0-1.5,1.5v8.31a16.55,16.55,0,0,0-3.16,29.08H43.06a1.5,1.5,0,0,0-1.42,1l-5,14.42a1.5,1.5,0,0,0,1.23,2l3.18.41L38.12,86h-5.7a1.5,1.5,0,1,0,0,3h2.7l-.35.35a1.5,1.5,0,1,0,2.12,2.12L39.37,89H77.89l2.47,2.47a1.5,1.5,0,0,0,2.12-2.12L82.13,89h1.7a1.5,1.5,0,0,0,0-3h-4.7l-3-3,2.29-.29a1.5,1.5,0,0,0,1.23-2l-5-14.42a1.5,1.5,0,0,0-1.42-1H67.43a16.55,16.55,0,0,0-3.16-29.08V27.88a1.5,1.5,0,0,0-1.5-1.5H60.22a10.62,10.62,0,0,0-15.15-8.74,14,14,0,0,0-24.53,2.9A10,10,0,0,0,15,39.42ZM42.37,86l2.44-2.44,13.13,1.68h.38l14-1.79L74.89,86ZM72.13,68.26l4,11.67-18,2.31-18-2.31,4-11.67Zm-.43-16.7A13.57,13.57,0,1,1,58.13,38,13.58,13.58,0,0,1,71.69,51.56ZM61.27,29.38V35.3a16.19,16.19,0,0,0-6.28,0V29.38Z"/></svg>