<svg id="Layer_1" data-name="Layer 1" xmlns="http://www.w3.org/2000/svg" viewBox="0 0 100 100"><title>Artboard 15</title><circle cx="53.58" cy="62.59" r="3.51"/><circle cx="63.6" cy="62.59" r="3.51"/><circle cx="73.63" cy="62.59" r="3.51"/><circle cx="83.65" cy="62.59" r="3.51"/><path d="M10.07,66.4a10.68,10.68,0,0,0,15.09,0A1.5,1.5,0,0,0,24.8,64l-5.39-2.88-4.88-6.65a4,4,0,0,0,.56-3L25.73,31a7.82,7.82,0,0,0,2.36-1.43L45.48,40.44,43.26,45a1.5,1.5,0,0,0-.15.66V54a1.5,1.5,0,0,0,1.5,1.5H46A10.08,10.08,0,0,0,53.2,72.67H84.33A10.08,10.08,0,0,0,91.5,55.5h1.42a1.5,1.5,0,0,0,1.5-1.5V45.72a1.5,1.5,0,0,0-1.5-1.5H91.65V31.71a1.5,1.5,0,0,0-1.5-1.5H67.59V27.44a1.5,1.5,0,0,0-1.5-1.5H56.75a6.8,6.8,0,0,0-5.64,3L30.66,22.62a7.81,7.81,0,1,0-13.9,5.9L9,48.79a4.06,4.06,0,0,0-1.23,5.95A10.75,10.75,0,0,0,10.07,66.4Zm74.27,3.27H53.2a7.08,7.08,0,0,1,0-14.17H84.33a7.08,7.08,0,0,1,0,14.17ZM67.59,33.21H88.65v11H67.59Zm23.83,14V52.5H46.11V47.22Zm-38-16.16a3.78,3.78,0,0,1,3.38-2.12h7.84V44.22H47ZM30.49,25.71l19.08,5.94-2.8,6.06L29.93,27.22A7.75,7.75,0,0,0,30.49,25.71Zm-7.56-6.77a4.82,4.82,0,1,1-4.82,4.82A4.82,4.82,0,0,1,22.93,18.93ZM19.17,30.6a7.76,7.76,0,0,0,2.93.92l-9,17.27a4.06,4.06,0,0,0-.78-.35Zm-8.1,20.62a1.1,1.1,0,1,1-1.1,1.1A1.1,1.1,0,0,1,11.07,51.21Zm-.7,5.14a4.08,4.08,0,0,0,.7.07,4.05,4.05,0,0,0,1.05-.15l5.08,6.92a1.49,1.49,0,0,0,.5.44l3.63,1.94a7.67,7.67,0,0,1-11-9.22Z"/><path d="M84.13,35.3H71.93a1.5,1.5,0,0,0,0,3h12.2a1.5,1.5,0,0,0,0-3Z"/><path d="M84.13,39.58H71.93a1.5,1.5,0,0,0,0,3h12.2a1.5,1.5,0,0,0,0-3Z"/><path d="M52.4,40.89a1.5,1.5,0,0,0,2-.69l3-6.07a.59.59,0,0,1,.53-.33h3.72a1.5,1.5,0,0,0,0-3H57.89a3.62,3.62,0,0,0-3.23,2l-3,6.07A1.5,1.5,0,0,0,52.4,40.89Z"/></svg>