<svg id="Layer_1" data-name="Layer 1" xmlns="http://www.w3.org/2000/svg" viewBox="0 0 100 100"><title>Artboard 46</title><path d="M90.07,48.93,49.42,89.58a1.5,1.5,0,1,0,2.12,2.12L92.19,51.05a1.5,1.5,0,0,0-2.12-2.12Z"/><path d="M51.54,8.29a1.5,1.5,0,0,0-2.12,0L8.78,48.93a1.5,1.5,0,1,0,2.12,2.12L51.54,10.41A1.5,1.5,0,0,0,51.54,8.29Z"/><path d="M71.87,30.73a1.5,1.5,0,0,0-2.12-2.12l-2.47,2.47a1.5,1.5,0,1,0,2.12,2.12Z"/><path d="M59.19,43.4l5.1-5.1a1.5,1.5,0,1,0-2.12-2.12l-5.1,5.1a1.5,1.5,0,1,0,2.12,2.12Z"/><path d="M54.09,48.5A1.5,1.5,0,1,0,52,46.38l-5.1,5.1A1.5,1.5,0,1,0,49,53.6Z"/><path d="M41.77,56.58l-5.1,5.1a1.5,1.5,0,1,0,2.12,2.12l5.1-5.1a1.5,1.5,0,0,0-2.12-2.12Z"/><path d="M31.57,66.78,29.1,69.26a1.5,1.5,0,1,0,2.12,2.12l2.47-2.48a1.5,1.5,0,1,0-2.12-2.12Z"/><path d="M67.32,61.13a1.5,1.5,0,0,0,1.5-1.5V53.76a1.5,1.5,0,0,0-1.5-1.5H61.45a1.5,1.5,0,0,0,0,3H63.7L54.95,64a1.5,1.5,0,1,0,2.12,2.12l8.76-8.76v2.25A1.5,1.5,0,0,0,67.32,61.13Z"/><path d="M50.58,39.21,60.72,29.07a3.5,3.5,0,0,0,0-4.95L55,18.42a3.58,3.58,0,0,0-4.95,0L35.19,33.29a4.5,4.5,0,0,0,0,6.36l4.29,4.29a4.5,4.5,0,0,0,6.36,0l4.73-4.73Zm1.61-18.67a.5.5,0,0,1,.71,0l5.71,5.71a.5.5,0,0,1,0,.71l-1.42,1.42A22.37,22.37,0,0,0,50.75,22ZM43.72,41.83a1.5,1.5,0,0,1-2.12,0l-4.29-4.29a1.5,1.5,0,0,1,0-2.12L40.68,32a22.37,22.37,0,0,0,6.43,6.4Zm-.87-12,5.72-5.72A19.13,19.13,0,0,1,55,30.54l-5.72,5.72A19.13,19.13,0,0,1,42.85,29.87Z"/><path d="M31.74,44.81,23,53.57V51.31a1.5,1.5,0,0,0-3,0v5.88a1.5,1.5,0,0,0,1.5,1.5h5.88a1.5,1.5,0,0,0,0-3H25.11l8.76-8.76a1.5,1.5,0,0,0-2.12-2.12Z"/></svg>