<svg id="Layer_1" data-name="Layer 1" xmlns="http://www.w3.org/2000/svg" viewBox="0 0 100 100"><title>Artboard 30</title><path d="M32.36,30.14a1.5,1.5,0,0,0,1.2,1.75l27.18,5.05-.83,4.46-2.65-.49a6.52,6.52,0,0,0-4.42.75L51,42.7a3.51,3.51,0,0,1-2.79.3L19.49,33.92a1.51,1.51,0,0,0-1.84.85c-.21.5.45,4.93,1.48,5.48l27.39,15,2.25,5.16A16.94,16.94,0,0,0,59.7,69.91l-.53,2.84-5.73-1.06a1.5,1.5,0,0,0-.55,2.95L60.09,76h0l19.32,3.59.28,0a1.5,1.5,0,0,0,.27-3l-6.59-1.23.54-2.91a8.68,8.68,0,0,0,8.5-7.09c.1-.54.17-1.09.22-1.63l0,0a1.49,1.49,0,0,0,0-.23v0s0,0,0-.06A19.29,19.29,0,0,0,79.8,51.57a1.5,1.5,0,0,0-.43-.69l0-.07a19.35,19.35,0,0,0-12.5-8.13l-4-.74.83-4.46,27.2,5.06.28,0a1.5,1.5,0,0,0,.27-3L34.11,28.94A1.5,1.5,0,0,0,32.36,30.14ZM70.43,74.85,62.12,73.3l.51-2.76,8.31,1.54Zm6.92-21.53a16.42,16.42,0,0,1,2.4,8.33l-4.49-.84a7.42,7.42,0,0,1-5.94-8.65l.06-.32Zm-16.51-8.7h0l5.45,1a16.36,16.36,0,0,1,8.13,4.09l-6-1.11a1.5,1.5,0,0,0-1.75,1.2l-.33,1.8A10.42,10.42,0,0,0,74.7,63.76l4.8.89c0,.06,0,.13,0,.19a5.68,5.68,0,0,1-6.62,4.54L61.77,67.33a14,14,0,0,1-10.25-8.14l-2.46-5.62a1.74,1.74,0,0,0-.7-.75L21.14,37.93,21,37.56l26.26,8.3a6.51,6.51,0,0,0,5.19-.56l1.83-1a3.5,3.5,0,0,1,2.38-.4l4.12.77Z"/><path d="M18.94,46.91a11.09,11.09,0,0,0,3.44-.55,1.5,1.5,0,1,0-.93-2.85,8.13,8.13,0,1,1,5.21-10.25,1.5,1.5,0,0,0,2.85-.93A11.13,11.13,0,1,0,18.94,46.91Z"/></svg>