<svg id="Layer_1" data-name="Layer 1" xmlns="http://www.w3.org/2000/svg" viewBox="0 0 100 100"><title>Artboard 47</title><path d="M82.76,50.06,71.68,48.9A3.51,3.51,0,0,1,69,47.2l-8.27-14A6.53,6.53,0,0,0,55.17,30H52.24V27h5.45a1.5,1.5,0,0,0,0-3H29a1.5,1.5,0,1,0,0,3h5.45V30H31.58a6.51,6.51,0,0,0-6.28,4.81L20.57,52.37c-.06.21-.23.84-.26,10.36a6.5,6.5,0,0,0,6.5,6.57,1.49,1.49,0,0,0,.37-.05,8.57,8.57,0,0,0,16.89.05h21.4a8.57,8.57,0,0,0,16.89,0,6.51,6.51,0,0,0,6.19-6.45l0-6.28A6.48,6.48,0,0,0,82.76,50.06ZM37.42,27H49.24V30H37.42Zm-1.8,46.43a5.58,5.58,0,1,1,5.58-5.58A5.59,5.59,0,0,1,35.63,73.39Zm38.29,0a5.58,5.58,0,1,1,5.58-5.58A5.59,5.59,0,0,1,73.91,73.39ZM85.54,62.82a3.5,3.5,0,0,1-3.19,3.45,8.57,8.57,0,0,0-16.88,0H44.07a8.57,8.57,0,0,0-16.89.05,1.49,1.49,0,0,0-.37-.05,3.5,3.5,0,0,1-3.5-3.55c0-4.27.09-9.07.16-9.6L28.2,35.62A3.51,3.51,0,0,1,31.58,33H55.17a3.52,3.52,0,0,1,3,1.72l8.27,14a6.53,6.53,0,0,0,4.91,3.15L82.44,53a3.49,3.49,0,0,1,3.13,3.5Z"/><path d="M14.21,45.22a4.36,4.36,0,0,0-4.36,4.36V58a4.36,4.36,0,1,0,8.72,0V49.58A4.37,4.37,0,0,0,14.21,45.22ZM15.57,58a1.36,1.36,0,1,1-2.72,0V49.58a1.36,1.36,0,1,1,2.72,0Z"/><path d="M60.5,48.49H30.13a1.5,1.5,0,1,0,0,3H60.5a1.5,1.5,0,0,0,0-3Z"/><path d="M43.33,46.27a1.5,1.5,0,0,0,1.5-1.5V36.42a1.5,1.5,0,0,0-3,0v8.35A1.5,1.5,0,0,0,43.33,46.27Z"/></svg>