<svg id="Layer_1" data-name="Layer 1" xmlns="http://www.w3.org/2000/svg" viewBox="0 0 100 100"><title>Artboard 42</title><path d="M88.51,45.11a4.52,4.52,0,0,0-4.25,3H74.78a23.06,23.06,0,0,0-5.72-13.77l6.71-6.71a4.56,4.56,0,1,0-2.12-2.12l-6.71,6.71a23.06,23.06,0,0,0-13.77-5.72V17a4.53,4.53,0,1,0-3,0v9.48A23.06,23.06,0,0,0,36.4,32.24l-6.71-6.71a4.58,4.58,0,1,0-2.12,2.12l6.71,6.71a23.06,23.06,0,0,0-5.72,13.77H19.09a4.53,4.53,0,1,0,0,3h9.48a23.06,23.06,0,0,0,5.72,13.77l-6.71,6.71a4.53,4.53,0,1,0,2.12,2.12L36.4,67a23.06,23.06,0,0,0,13.77,5.72v9.48a4.53,4.53,0,1,0,3,0V72.74A23.06,23.06,0,0,0,66.95,67l6.71,6.71a4.53,4.53,0,1,0,2.12-2.12l-6.71-6.71a23.06,23.06,0,0,0,5.72-13.77h9.48a4.52,4.52,0,1,0,4.25-6ZM76.64,22.5a1.53,1.53,0,1,1-.45,1.08A1.52,1.52,0,0,1,76.64,22.5ZM26.7,24.66a1.53,1.53,0,1,1,0-2.16A1.53,1.53,0,0,1,26.7,24.66ZM14.83,51.16a1.53,1.53,0,1,1,1.53-1.53A1.53,1.53,0,0,1,14.83,51.16ZM26.7,76.76a1.53,1.53,0,1,1,0-2.16A1.53,1.53,0,0,1,26.7,76.76ZM76.64,74.6a1.53,1.53,0,1,1-.45,1.08A1.52,1.52,0,0,1,76.64,74.6ZM64.81,34.37l-8.48,8.48a8.13,8.13,0,0,0-3.16-1.3v-12A20.06,20.06,0,0,1,64.81,34.37ZM50.15,12.79a1.53,1.53,0,1,1,1.53,1.53A1.53,1.53,0,0,1,50.15,12.79Zm0,16.75v12A8.13,8.13,0,0,0,47,42.89l-8.51-8.51A20.06,20.06,0,0,1,50.17,29.55ZM36.41,36.49,44.94,45a8.13,8.13,0,0,0-1.27,3.12H31.59A20.05,20.05,0,0,1,36.41,36.49ZM31.59,51.13h12.1A8.13,8.13,0,0,0,45,54.22l-8.56,8.56A20.05,20.05,0,0,1,31.59,51.13ZM38.53,64.9l8.56-8.56a8.13,8.13,0,0,0,3.08,1.29v12.1A20.06,20.06,0,0,1,38.53,64.9ZM53.2,86.47a1.53,1.53,0,1,1-1.53-1.53A1.53,1.53,0,0,1,53.2,86.47Zm-1.49-31.7a5.18,5.18,0,1,1,5.18-5.18A5.18,5.18,0,0,1,51.71,54.77Zm1.46,14.95V57.64a8.13,8.13,0,0,0,3.12-1.27l8.53,8.53A20.06,20.06,0,0,1,53.17,69.72Zm13.76-6.95-8.51-8.51a8.13,8.13,0,0,0,1.32-3.13h12A20.06,20.06,0,0,1,66.94,62.77ZM59.75,48.13A8.13,8.13,0,0,0,58.45,45l8.48-8.48a20.06,20.06,0,0,1,4.83,11.64Zm28.76,3A1.53,1.53,0,1,1,90,49.63,1.53,1.53,0,0,1,88.51,51.16Z"/><circle cx="51.71" cy="49.6" r="1.75"/></svg>