<svg id="Layer_1" data-name="Layer 1" xmlns="http://www.w3.org/2000/svg" viewBox="0 0 100 100"><title>Artboard 44</title><path d="M75,70.23a1.5,1.5,0,0,0-1.5,1.5,2.4,2.4,0,0,1-2.4,2.4H62.41V68h4.3a6.51,6.51,0,0,0,6.5-6.5v-.8A9.78,9.78,0,0,0,64.38,51h0l-8.44-.72a3.62,3.62,0,0,1-3.19-2.61L48.76,34a4.93,4.93,0,0,0-4.71-3.53H33a4.49,4.49,0,0,0-4.49,4.3L27.37,59.06a1.56,1.56,0,0,0,0,.17A9.46,9.46,0,0,0,36.8,68h2v6.08H28.37a1.5,1.5,0,0,0,0,3H71.08a1.51,1.51,0,0,0,.3,0,5.39,5.39,0,0,0,5.09-5.37A1.5,1.5,0,0,0,75,70.23ZM36.8,65a6.46,6.46,0,0,1-6.42-5.94l1.09-24.17A1.5,1.5,0,0,1,33,33.51h11.1a1.91,1.91,0,0,1,1.83,1.37l.41,1.4-3,3a1.5,1.5,0,1,0,2.12,2.12l1.81-1.81,1,3.33-4,4A1.5,1.5,0,1,0,46.31,49l2.86-2.86.68,2.32a6.5,6.5,0,0,0,.53,1.26l-3.91,3.91a1.5,1.5,0,1,0,2.12,2.12L52.37,52a6.61,6.61,0,0,0,3.29,1.24l.87.07-1.85,1.85a1.5,1.5,0,1,0,2.12,2.12l3.64-3.64,3.65.31h.07l-1.77,1.77a1.5,1.5,0,1,0,2.12,2.12l2.74-2.74a6.78,6.78,0,0,1,3,5.62v.8a3.5,3.5,0,0,1-3.5,3.5Zm22.62,9.08H41.79V68H59.41Z"/></svg>