<svg id="Layer_1" data-name="Layer 1" xmlns="http://www.w3.org/2000/svg" viewBox="0 0 100 100"><title>Artboard 23</title><path d="M65.48,14.25H33.85a8.51,8.51,0,0,0-8.5,8.5V81.88H12.91a1.5,1.5,0,1,0,0,3H86.43a1.5,1.5,0,0,0,0-3H74v-8.5c5.51-.68,13.95-4.35,13.95-14.74,0-5.18-3.33-7.85-6.28-10.2s-5.43-4.35-5.43-8.54c0-3.81,1-6.87,2.79-8.62a6.21,6.21,0,0,1,4.72-1.68,1.5,1.5,0,1,0,.09-3,9.23,9.23,0,0,0-6.9,2.53A11.73,11.73,0,0,0,74,34.31V22.75A8.51,8.51,0,0,0,65.48,14.25ZM71,81.88H28.35V22.75a5.51,5.51,0,0,1,5.5-5.5H65.48a5.51,5.51,0,0,1,5.5,5.5Zm8.8-31.1c2.76,2.21,5.15,4.12,5.15,7.86,0,9-7.59,11.16-10.95,11.69V44.05C75.17,47.08,77.58,49,79.78,50.77Z"/><path d="M58.29,25.18H41a5.51,5.51,0,0,0-5.5,5.5V43.85a5.51,5.51,0,0,0,5.5,5.5H58.29a5.51,5.51,0,0,0,5.5-5.5V30.68A5.51,5.51,0,0,0,58.29,25.18Zm2.5,18.67a2.5,2.5,0,0,1-2.5,2.5H41a2.5,2.5,0,0,1-2.5-2.5V30.68a2.5,2.5,0,0,1,2.5-2.5H58.29a2.5,2.5,0,0,1,2.5,2.5Z"/><path d="M49.52,36.79a3.32,3.32,0,0,0-.5.05l-2.16-3a1.5,1.5,0,0,0-2.45,1.74l2.16,3a3.31,3.31,0,0,0-.4,1.56,3.35,3.35,0,1,0,3.35-3.35Z"/></svg>