<svg id="Layer_1" data-name="Layer 1" xmlns="http://www.w3.org/2000/svg" viewBox="0 0 100 100"><title>Artboard 6</title><path d="M33.23,50.73l6.42,24.66A1.46,1.46,0,0,0,40,76a2.48,2.48,0,0,0-.19.95v6.61a4.5,4.5,0,0,0,4.5,4.5H56.17a4.5,4.5,0,0,0,4.5-4.5V77a2.47,2.47,0,0,0-.16-.84,1.48,1.48,0,0,0,.49-.76l6.28-24.13a1.48,1.48,0,0,0,0-.67c3.27-5.85,5.25-12.63,5.25-18.11,0-11.76-9.37-20.29-22.29-20.29S28,20.72,28,32.48c0,5.48,2,12.26,5.24,18.1A1.46,1.46,0,0,0,33.23,50.73Zm4.83,6.66c3.11,3.39,6.76,5.76,10.7,6.25V74.48H42.51Zm19.61,26.2a1.5,1.5,0,0,1-1.5,1.5H44.34a1.5,1.5,0,0,1-1.5-1.5V77.48H57.67Zm.47-9.11H51.76V63.64c4-.5,7.73-3,10.89-6.45Zm11.41-42c0,5.49-2.3,12.71-5.86,18.39a24.85,24.85,0,0,1-7.48,8c3.78-6.69,5.95-18.74,5.95-26.37,0-6.85-1.61-12.5-4.3-16.09C65,18.82,69.55,24.77,69.55,32.48ZM50.26,15.18c5.16,0,8.9,7.27,8.9,17.29,0,12.42-5,28.27-8.9,28.27s-8.9-15.85-8.9-28.27C41.36,22.46,45.1,15.18,50.26,15.18Zm-7.6,1.21C40,20,38.36,25.63,38.36,32.48c0,7.66,2.18,19.76,6,26.44C36.67,54.17,31,41.24,31,32.48,31,24.77,35.52,18.82,42.66,16.39Z"/></svg>