<svg id="Layer_1" data-name="Layer 1" xmlns="http://www.w3.org/2000/svg" viewBox="0 0 100 100"><title>Artboard 27</title><path d="M58.28,43.25H42.73a4.5,4.5,0,0,0-4.5,4.5V59.29a4.5,4.5,0,0,0,4.39,4.49,8,8,0,0,0,15.76,0,4.5,4.5,0,0,0,4.39-4.49V47.75A4.5,4.5,0,0,0,58.28,43.25ZM50.5,67.32a5,5,0,1,1,5-5A5,5,0,0,1,50.5,67.32Zm9.28-8a1.5,1.5,0,0,1-1.4,1.49,8,8,0,0,0-15.76,0,1.5,1.5,0,0,1-1.4-1.49V47.75a1.5,1.5,0,0,1,1.5-1.5H58.28a1.5,1.5,0,0,1,1.5,1.5Z"/><path d="M26.4,88.21a1.5,1.5,0,0,0,2.12,0l4.55-4.55H67.94l4.55,4.55a1.5,1.5,0,1,0,2.12-2.12l-2.42-2.42H73a1.5,1.5,0,0,0,0-3H69.19l-3.38-3.38h1.9a4.5,4.5,0,0,0,4.5-4.5V48.37a14.52,14.52,0,0,0-14.5-14.5H43.29a14.52,14.52,0,0,0-14.5,14.5V72.79a4.5,4.5,0,0,0,4.5,4.5H35.2l-3.38,3.38H28a1.5,1.5,0,0,0,0,3h.82L26.4,86.09A1.5,1.5,0,0,0,26.4,88.21Zm9.67-7.55,3.08-3.08a1.44,1.44,0,0,0,.2-.3H61.67a1.44,1.44,0,0,0,.2.3l3.08,3.08Zm-2.77-6.38a1.5,1.5,0,0,1-1.5-1.5V70.32H35.5a1.5,1.5,0,0,0,0-3H31.79v-19a11.51,11.51,0,0,1,11.5-11.5H57.71a11.51,11.51,0,0,1,11.5,11.5v19H65.51a1.5,1.5,0,0,0,0,3h3.71v2.47a1.5,1.5,0,0,1-1.5,1.5Z"/><path d="M22.08,87.84a1.5,1.5,0,0,0,0-2.12A40.2,40.2,0,1,1,78.93,28.87a40.2,40.2,0,0,1,0,56.86,1.5,1.5,0,1,0,2.12,2.12A43.2,43.2,0,1,0,20,26.75a43.2,43.2,0,0,0,0,61.1A1.5,1.5,0,0,0,22.08,87.84Z"/></svg>