<svg id="Layer_1" data-name="Layer 1" xmlns="http://www.w3.org/2000/svg" viewBox="0 0 100 100"><title>Artboard 33</title><path d="M65.9,30.07a6.28,6.28,0,0,0-1.5,12.37v8.89H50.9V42.44a6.28,6.28,0,1,0-3,0v8.89H33.5V42.44a6.28,6.28,0,1,0-3,0V63.22a6.28,6.28,0,1,0,3,0V54.33H47.9v8.89a6.28,6.28,0,1,0,3,0V54.33h15a1.5,1.5,0,0,0,1.5-1.5V42.44a6.28,6.28,0,0,0-1.5-12.37ZM35.28,69.32A3.28,3.28,0,1,1,32,66,3.29,3.29,0,0,1,35.28,69.32ZM32,39.63a3.28,3.28,0,1,1,3.28-3.28A3.29,3.29,0,0,1,32,39.63ZM52.68,69.32A3.28,3.28,0,1,1,49.4,66,3.29,3.29,0,0,1,52.68,69.32ZM65.9,39.63a3.28,3.28,0,1,1,3.28-3.28A3.29,3.29,0,0,1,65.9,39.63Z"/><path d="M49.4,11.9A40.93,40.93,0,1,0,90.33,52.83,41,41,0,0,0,49.4,11.9Zm0,78.86A37.93,37.93,0,1,1,87.33,52.83,38,38,0,0,1,49.4,90.76Z"/></svg>