<svg id="Layer_1" data-name="Layer 1" xmlns="http://www.w3.org/2000/svg" viewBox="0 0 100 100"><title>Artboard 13</title><path d="M75,48.48a16.38,16.38,0,0,0-6.3,1.26l-5-8.61a2.54,2.54,0,0,1,1-3.32,1.5,1.5,0,0,0-1.52-2.59,5.51,5.51,0,0,0-2.24,7.05,1.5,1.5,0,0,0,.13.3l0,.07c0,.06.05.13.09.19a1.44,1.44,0,0,0,.09.11l1.09,1.87L48.54,58.67,41.3,46.23h2.32A2.41,2.41,0,0,0,44,41.44L32,39.61A2.41,2.41,0,0,0,29.22,42v1.83a2.41,2.41,0,0,0,2.41,2.41h6.2L45,58.63a6.43,6.43,0,0,0-.67,0,6.34,6.34,0,0,0-4.05,1.46,16.48,16.48,0,1,0,0,9.8,6.34,6.34,0,0,0,7.36.53l2.38,2.38a1.5,1.5,0,1,0,2.12-2.12L49.8,68.26a6.32,6.32,0,0,0,0-6.61L63.95,47.5l2.12,3.64a16.45,16.45,0,1,0,9-2.67Zm-50.44,18H38a13.48,13.48,0,1,1,0-3H24.59a1.5,1.5,0,1,0,0,3ZM75,78.43a13.47,13.47,0,0,1-7.45-24.7l7,12a1.5,1.5,0,0,0,2.59-1.51L70.25,52.37A13.47,13.47,0,1,1,75,78.43Z"/></svg>