<svg id="Layer_1" data-name="Layer 1" xmlns="http://www.w3.org/2000/svg" viewBox="0 0 100 100"><title>Artboard 39</title><path d="M31.59,56.51a1.5,1.5,0,0,0,1.06-2.56l-6.82-6.82a1.5,1.5,0,0,0-2.12,0L16.9,53.95A1.5,1.5,0,1,0,19,56.07l4.37-4.37A26.06,26.06,0,0,0,34.09,70.5L48.21,84.63a1.51,1.51,0,0,0,.23.19l.06,0,.2.11.09,0L49,85a1.49,1.49,0,0,0,.59,0l.2-.06.08,0,.2-.11.05,0a1.51,1.51,0,0,0,.23-.19L64.46,70.51A26,26,0,0,0,75.16,51.7l4.37,4.37a1.5,1.5,0,0,0,2.12-2.12l-6.82-6.82a1.5,1.5,0,0,0-2.12,0L65.9,53.95A1.5,1.5,0,1,0,68,56.07l4.1-4.1a23,23,0,0,1-11,17.14C56.65,66.32,52.08,58,51,52.15a1.48,1.48,0,0,0-.18-.47v-20a7.17,7.17,0,1,0-3,.09V51.54a1.49,1.49,0,0,0-.18.47c-1.13,5.92-5.77,14.31-10.3,17A23,23,0,0,1,26.43,52l4.1,4.1A1.5,1.5,0,0,0,31.59,56.51Zm27.68,15L50.77,80V60.64C52.93,65.09,56,69.29,59.27,71.46ZM44.89,24.72a4.17,4.17,0,1,1,4.17,4.17A4.18,4.18,0,0,1,44.89,24.72Zm2.88,35.79V80L39.2,71.38C42.49,69.23,45.6,65,47.77,60.51Z"/></svg>