<svg id="Layer_1" data-name="Layer 1" xmlns="http://www.w3.org/2000/svg" viewBox="0 0 100 100"><title>Artboard 25</title><path d="M94.5,51.95s0-.1,0-.15L89.55,39.2a4.39,4.39,0,0,0-4.11-2.81h-11a4.36,4.36,0,0,0-1.42.25V34.5a4.5,4.5,0,0,0-4.5-4.5H30.74a4.5,4.5,0,0,0-3.94,2.33L10.46,62V60.6a1.5,1.5,0,0,0-3,0V71.77a1.5,1.5,0,0,0,3,0V69.33H14a8,8,0,0,0,15.73,0h3.8a8,8,0,0,0,15.73,0H74.5a8,8,0,0,0,15.84-.69v.69a4.42,4.42,0,0,0,4.42-4.42V53.4a4.39,4.39,0,0,0-.23-1.35S94.51,52,94.5,51.95ZM21.87,72.84a5,5,0,1,1,5-5A5,5,0,0,1,21.87,72.84Zm19.54,0a5,5,0,0,1-5-5h0a5,5,0,1,1,5,5ZM70,40.8V66.33H49.27a8,8,0,0,0-15.73,0h-3.8a8,8,0,0,0-15.73,0H11.5L29.42,33.78A1.5,1.5,0,0,1,30.74,33H68.48A1.5,1.5,0,0,1,70,34.5Zm12.39,32a5,5,0,1,1,5-5A5,5,0,0,1,82.37,72.84Zm9.39-7.93a1.42,1.42,0,0,1-1.42,1.42V67a8,8,0,0,0-15.84-.69h-.1A1.42,1.42,0,0,1,73,64.91V40.8a1.42,1.42,0,0,1,1.42-1.42h11a1.41,1.41,0,0,1,1.32.9l4.11,10.56H78.33a1.5,1.5,0,0,0,0,3H91.76Z"/><path d="M64.56,50.85H27.33a1.5,1.5,0,1,0,0,3H64.56a1.5,1.5,0,0,0,0-3Z"/><path d="M30.39,47.93a1.5,1.5,0,0,0,2-.59l5.21-9.46A1.5,1.5,0,0,0,35,36.44L29.8,45.89A1.5,1.5,0,0,0,30.39,47.93Z"/><path d="M38.74,47.93a1.5,1.5,0,0,0,2-.59L46,37.89a1.5,1.5,0,1,0-2.63-1.45l-5.21,9.46A1.5,1.5,0,0,0,38.74,47.93Z"/><path d="M47.08,47.93a1.5,1.5,0,0,0,2-.59l5.21-9.46a1.5,1.5,0,0,0-2.63-1.45l-5.21,9.46A1.5,1.5,0,0,0,47.08,47.93Z"/><path d="M55.43,47.93a1.5,1.5,0,0,0,2-.59l5.21-9.46A1.5,1.5,0,0,0,60,36.44l-5.21,9.46A1.5,1.5,0,0,0,55.43,47.93Z"/></svg>