<svg id="Layer_1" data-name="Layer 1" xmlns="http://www.w3.org/2000/svg" viewBox="0 0 100 100"><title>Artboard 14</title><path d="M8.75,68.13a1.49,1.49,0,0,0,.74-.2,14.22,14.22,0,0,1,15,0,18.11,18.11,0,0,0,9,2.53,18.11,18.11,0,0,0,9-2.53,14.22,14.22,0,0,1,15,0,17.22,17.22,0,0,0,18,0,14.22,14.22,0,0,1,15,0A1.5,1.5,0,1,0,92,65.33a17.22,17.22,0,0,0-18,0,14.05,14.05,0,0,1-12.32,1.26l5-12.63a1.5,1.5,0,0,0-1-2l-3.17-.83V42a1.5,1.5,0,0,0-1.5-1.5H56.7v-3.7a1.5,1.5,0,0,0-1.5-1.5H51.5V21a1.5,1.5,0,0,0-3,0v14.3H44.8a1.5,1.5,0,0,0-1.5,1.5v3.7H39a1.5,1.5,0,0,0-1.5,1.5v9.09L34.31,52a1.5,1.5,0,0,0-1,2L38.2,66.63A14.05,14.05,0,0,1,26,65.33a17.22,17.22,0,0,0-18,0,1.5,1.5,0,0,0,.74,2.81ZM46.3,38.33h7.4v2.2H46.3Zm-5.82,5.2h19v6.81L50.38,48a1.49,1.49,0,0,0-.76,0l-9.14,2.39Zm-3.79,10.9L50,51l13.29,3.47L59,65.32a17.22,17.22,0,0,0-18,0l-.08,0Z"/><path d="M8.75,78.13a1.49,1.49,0,0,0,.74-.2,14.22,14.22,0,0,1,15,0,18.11,18.11,0,0,0,9,2.53,18.11,18.11,0,0,0,9-2.53,14.22,14.22,0,0,1,15,0,17.22,17.22,0,0,0,18,0,14.22,14.22,0,0,1,15,0A1.5,1.5,0,1,0,92,75.33a17.22,17.22,0,0,0-18,0,14.23,14.23,0,0,1-15,0,17.22,17.22,0,0,0-18,0,14.22,14.22,0,0,1-15,0,17.22,17.22,0,0,0-18,0,1.5,1.5,0,0,0,.74,2.81Z"/></svg>