<svg id="Layer_1" data-name="Layer 1" xmlns="http://www.w3.org/2000/svg" viewBox="0 0 100 100"><title>Artboard 41</title><path d="M72.17,25.8a1.5,1.5,0,0,0-1.5-1.5H62.81l-.08-.19a1.5,1.5,0,0,0-.16-.37c-2.32-5.32-7.06-10.83-12.9-10.83s-10.59,5.52-12.9,10.84a1.5,1.5,0,0,0-.16.37l-.08.2H28.67a1.5,1.5,0,0,0,0,3h6.9A12.25,12.25,0,0,0,35.23,30a9.26,9.26,0,0,0,.12,1.49,12.41,12.41,0,0,0-8.18,11.6V53.25a22.63,22.63,0,0,0,15,21.21v8.67a7.47,7.47,0,1,0,14.94,0V74.46a22.63,22.63,0,0,0,15-21.21V43.08A12.41,12.41,0,0,0,64,31.47,9.13,9.13,0,0,0,64.11,30a12.25,12.25,0,0,0-.34-2.69h6.9A1.5,1.5,0,0,0,72.17,25.8ZM41.73,21C44.1,17.76,47,15.9,49.67,15.9c4.23,0,8,4.26,9.94,8.49-1.15,1.87-5,7.54-9.94,7.54s-8.78-5.66-9.94-7.53A21,21,0,0,1,41.73,21ZM38.49,27.9c2.14,2.88,6.1,7,11.18,7s9-4.14,11.18-7A9.67,9.67,0,0,1,61.11,30c0,4.66-5.13,8.45-11.44,8.45-5.26,0-9.82-2.64-11.1-6.41a6.33,6.33,0,0,1-.34-2A9.56,9.56,0,0,1,38.49,27.9ZM54.14,83.14a4.47,4.47,0,1,1-8.94,0V59.57a4.47,4.47,0,1,1,8.94,0Zm7.54-14.56a19.32,19.32,0,0,1-4.54,2.68V59.57a7.47,7.47,0,1,0-14.94,0V71.26a19.32,19.32,0,0,1-4.54-2.67V58.75a12,12,0,0,1,24,0Zm7.49-25.5V53.25a19.52,19.52,0,0,1-4.49,12.39V58.75a15,15,0,0,0-30,0v6.88a19.52,19.52,0,0,1-4.49-12.39V43.08a9.39,9.39,0,0,1,6.14-8.76c2.18,4.25,7.44,7.12,13.37,7.12S60.87,38.49,63,34.32A9.39,9.39,0,0,1,69.17,43.08Z"/></svg>