<svg id="Layer_1" data-name="Layer 1" xmlns="http://www.w3.org/2000/svg" viewBox="0 0 100 100"><title>Artboard 26</title><path d="M74.79,25.56a1.5,1.5,0,0,0-1.5-1.5H61a11.3,11.3,0,0,0-22.39,0H26.38a1.5,1.5,0,0,0,0,3H38a14.29,14.29,0,0,0-5.6,11.39V62.9a14.46,14.46,0,0,0,11.05,14v9a5.86,5.86,0,0,0,5.85,5.85h1a5.86,5.86,0,0,0,5.85-5.85v-9a14.46,14.46,0,0,0,11.05-14V38.44a14.48,14.48,0,0,0-5.6-11.39H73.29A1.5,1.5,0,0,0,74.79,25.56Zm-25-8.31a8.32,8.32,0,0,1,8.31,8.3h0a8.31,8.31,0,1,1-8.31-8.31Zm3.33,68.67a2.85,2.85,0,0,1-2.85,2.85h-1a2.85,2.85,0,0,1-2.85-2.85V65.65a2.85,2.85,0,0,1,2.85-2.85h1a2.85,2.85,0,0,1,2.85,2.85ZM64.22,38.44V62.9a11.44,11.44,0,0,1-8.05,10.88V65.65a5.86,5.86,0,0,0-5.85-5.85h-1a5.86,5.86,0,0,0-5.85,5.85v8.13A11.44,11.44,0,0,1,35.44,62.9V38.44a11.3,11.3,0,0,1,3.93-8.59,11.3,11.3,0,0,0,20.91,0A11.27,11.27,0,0,1,64.22,38.44Z"/></svg>