<svg id="Layer_1" data-name="Layer 1" xmlns="http://www.w3.org/2000/svg" viewBox="0 0 100 100"><title>Artboard 1</title><path d="M89.67,39.47a5.24,5.24,0,0,0-5.16-4.33H14.28A5.24,5.24,0,0,0,9,40.37v19a5.24,5.24,0,0,0,5.24,5.24h2.78a1.5,1.5,0,0,0,0-3H14.28A2.24,2.24,0,0,1,12,59.38V54.94a.2.2,0,0,1,.2-.2h8.1A1.7,1.7,0,0,0,22,53V43.57a1.7,1.7,0,0,0-1.7-1.7h-8.1a.2.2,0,0,1-.2-.2v-1.3a2.24,2.24,0,0,1,2.24-2.24H84.51A2.24,2.24,0,0,1,86.71,40L87,41.64a.2.2,0,0,1-.19.23H78.55l-.16,0-.13,0-.13.07-.12.07-.11.09-.11.09-.1.11-.09.11-.08.13-.06.12s0,.09,0,.13,0,.1,0,.15,0,.08,0,.12a1.48,1.48,0,0,0,0,.17v0s0,.08,0,.12,0,.09,0,.14l1.74,9.87h0a1.48,1.48,0,0,0,.16.45l0,.06a1.5,1.5,0,0,0,.29.34l.06.05a1.48,1.48,0,0,0,.39.22l.06,0a1.48,1.48,0,0,0,.46.08h8.59a.2.2,0,0,1,.19.16l.76,4.31a2,2,0,0,1-2,2.39h-2a1.5,1.5,0,0,0,0,3h1.76a5.4,5.4,0,0,0,3.32-1A5,5,0,0,0,93,58.7ZM12.24,44.88h6.6a.2.2,0,0,1,.2.2v6.47a.2.2,0,0,1-.2.2h-6.6a.2.2,0,0,1-.2-.2V45.07A.2.2,0,0,1,12.24,44.88Zm76.3,6.87H82a.2.2,0,0,1-.19-.16l-1.14-6.47a.2.2,0,0,1,.19-.23h6.55a.2.2,0,0,1,.19.16l1.14,6.47A.2.2,0,0,1,88.54,51.74Z"/><path d="M57.3,41.88H46.13a1.5,1.5,0,0,0-1.5,1.5V61.61H38a1.5,1.5,0,1,0,0,3H65.16a1.5,1.5,0,0,0,0-3H58.8V43.38A1.5,1.5,0,0,0,57.3,41.88ZM55.8,61.61H47.63V44.88H55.8Z"/><path d="M21.13,63.11a6.5,6.5,0,1,0,6.5-6.5A6.51,6.51,0,0,0,21.13,63.11Zm6.5-3.5a3.5,3.5,0,1,1-3.5,3.5A3.5,3.5,0,0,1,27.63,59.61Z"/><path d="M69.13,63.11a6.5,6.5,0,1,0,6.5-6.5A6.51,6.51,0,0,0,69.13,63.11Zm6.5-3.5a3.5,3.5,0,1,1-3.5,3.5A3.5,3.5,0,0,1,75.63,59.61Z"/><path d="M62.41,44.88h10a1.5,1.5,0,0,0,0-3h-10a1.5,1.5,0,0,0,0,3Z"/><path d="M62.41,54.74h10a1.5,1.5,0,0,0,0-3h-10a1.5,1.5,0,0,0,0,3Z"/><path d="M27.63,44.88h10a1.5,1.5,0,0,0,0-3h-10a1.5,1.5,0,1,0,0,3Z"/><path d="M27.63,54.75h10a1.5,1.5,0,0,0,0-3h-10a1.5,1.5,0,0,0,0,3Z"/></svg>