<svg id="Layer_1" data-name="Layer 1" xmlns="http://www.w3.org/2000/svg" viewBox="0 0 100 100"><title>Artboard 19</title><path d="M11,71h9.57a9.86,9.86,0,0,0,19.5,0H68.12a9.86,9.86,0,0,0,19.5,0,4.5,4.5,0,0,0,4.5-4.5V56.25a4.5,4.5,0,0,0-4.5-4.5h-8L71,38.4a4.48,4.48,0,0,0-3.77-2H59.46a4.5,4.5,0,0,0-4.5,4.5V68H52.41V33.54a1.5,1.5,0,0,0-1.5-1.5H15a1.5,1.5,0,0,0-1.5,1.5V68H11a1.5,1.5,0,0,0,0,3Zm66.88,5.38a6.88,6.88,0,1,1,6.88-6.88A6.89,6.89,0,0,1,77.88,76.34ZM58,40.85a1.5,1.5,0,0,1,1.5-1.5h7.72a1.49,1.49,0,0,1,1.26.68L76,51.75H58Zm0,13.9H87.63a1.5,1.5,0,0,1,1.5,1.5V66.47a1.5,1.5,0,0,1-1.5,1.5,9.86,9.86,0,0,0-19.5,0H58ZM37.19,69.54a6.88,6.88,0,1,1,0-.15s0,.05,0,.08S37.19,69.52,37.19,69.54ZM16.48,35H49.41V68H40.07a9.86,9.86,0,0,0-19.5,0H16.48Z"/><path d="M24.39,56.84a1.5,1.5,0,0,0,1.15,0L43.32,49.3a1.5,1.5,0,0,0,.8-2L41,40a1.5,1.5,0,0,0-2-.8L21.25,46.7a1.5,1.5,0,0,0-.8,2L23.57,56A1.5,1.5,0,0,0,24.39,56.84ZM38.81,42.52l2,4.6-15,6.37-2-4.6Z"/></svg>