<svg id="Layer_1" data-name="Layer 1" xmlns="http://www.w3.org/2000/svg" viewBox="0 0 100 100"><title>Artboard 40</title><path d="M77,41.56A1.5,1.5,0,0,0,78.05,39L55.12,16.06A1.5,1.5,0,0,0,53,18.19L75.93,41.12A1.5,1.5,0,0,0,77,41.56Z"/><path d="M81.28,37.28a1.5,1.5,0,0,0,1.06-2.56L59.4,11.78a1.5,1.5,0,0,0-2.12,2.12L80.22,36.84A1.5,1.5,0,0,0,81.28,37.28Z"/><path d="M55.5,61.56a1.5,1.5,0,0,0,2.12,0l4.07-4.07L73.77,45.41a1.5,1.5,0,0,0,0-2.12L50.83,20.35a1.5,1.5,0,0,0-2.12,0L36.63,32.43,32.56,36.5a1.5,1.5,0,1,0,2.12,2.12l3-3,3.52,3.52-1.91,5a1.5,1.5,0,0,0,.34,1.6l.68.68L24.56,63.44a9.89,9.89,0,0,0-9,1.37L14.09,63.4A1.5,1.5,0,0,0,12,65.52l1.42,1.42a9.87,9.87,0,0,0,13.8,13.8l1.16,1.16a1.5,1.5,0,0,0,2.12-2.12l-1.16-1.16a9.89,9.89,0,0,0,1.37-9L47.75,53.8l.68.68a1.5,1.5,0,0,0,1.6.34l5-1.91,3.52,3.52-3,3A1.5,1.5,0,0,0,55.5,61.56ZM26.21,77.64a6.88,6.88,0,1,1,0-9.73A6.89,6.89,0,0,1,26.21,77.64Zm3-10.82a8.88,8.88,0,0,0-1.93-1.93L42.44,48.5l3.18,3.18ZM56.42,50.1a1.5,1.5,0,0,0-1.6-.34l-5,1.91-7.4-7.4,1.91-5A1.5,1.5,0,0,0,44,37.7l-4.21-4.21,10-10L70.59,44.35l-10,10Z"/><path d="M53.17,35.64a5.31,5.31,0,1,0,3.75,9.06h0a5.31,5.31,0,0,0-3.75-9.06Zm1.63,6.94a2.37,2.37,0,0,1-3.27,0,2.31,2.31,0,1,1,3.27,0Z"/></svg>