<svg id="Layer_1" data-name="Layer 1" xmlns="http://www.w3.org/2000/svg" viewBox="0 0 100 100"><title>Artboard 2</title><path d="M14.86,70.72H20a8.86,8.86,0,0,0,17.47,0H59.84a8.86,8.86,0,0,0,17.47,0h4.33a6.86,6.86,0,0,0,6.86-6.86V60.55A6.84,6.84,0,0,0,82,53.71L67.21,51.35c-1.11-.87-4-2.87-12-8.23-1.31-1.35-3.94-1.72-4.8-1.74l-22.53-.6a5.35,5.35,0,0,0-3.63,1.3C18.17,46.53,8,54.45,8,57.75v6.12A6.86,6.86,0,0,0,14.86,70.72ZM28.73,75.1a5.87,5.87,0,1,1,5.87-5.87A5.88,5.88,0,0,1,28.73,75.1Zm39.84,0a5.87,5.87,0,1,1,5.87-5.87A5.88,5.88,0,0,1,68.58,75.1ZM26.11,44.46l.12-.09a2.3,2.3,0,0,1,1.62-.59l22.53.6a5.43,5.43,0,0,1,2.74.84,1.51,1.51,0,0,0,.32.29c4.27,2.87,11.24,7.61,12.1,8.3a1.5,1.5,0,0,0,.85.44l15.26,2.43.17,0a3.85,3.85,0,0,1,3.69,3.85v3.32a3.86,3.86,0,0,1-3.86,3.86H77.31a8.86,8.86,0,0,0-17.47,0H37.47a8.86,8.86,0,0,0-17.47,0H14.86A3.86,3.86,0,0,1,11,63.87v-6C11.4,56.08,19.15,49.53,26.11,44.46Z"/></svg>