<svg id="Layer_1" data-name="Layer 1" xmlns="http://www.w3.org/2000/svg" viewBox="0 0 100 100"><title>Artboard 11</title><path d="M49.3,88a38,38,0,1,0-38-38A38.06,38.06,0,0,0,49.3,88Zm2.5-3.1c-.83.06-1.66.1-2.5.1s-1.67,0-2.5-.1V71.67h5ZM44,68.67a4.73,4.73,0,0,1-4.39-3L34.36,52.06a4.7,4.7,0,0,1,4.39-6.39H59.84a4.7,4.7,0,0,1,4.39,6.39L59,65.65a4.73,4.73,0,0,1-4.39,3ZM84.31,50A35.07,35.07,0,0,1,54.8,84.58V71.65a7.74,7.74,0,0,0,7-4.92L66.9,53.48l17.31-6.06C84.27,48.28,84.31,49.13,84.31,50Zm-.46-5.63L67.53,50.08A7.69,7.69,0,0,0,66.19,46c-.14-.21-.3-.4-.46-.59l17-5.94A34.73,34.73,0,0,1,83.86,44.37ZM49.3,15A35.07,35.07,0,0,1,81.67,36.66l-18.87,6.6a7.69,7.69,0,0,0-3-.6H38.75a7.68,7.68,0,0,0-3.16.69l-.19-.09L16.88,36.79A35.06,35.06,0,0,1,49.3,15ZM15.86,39.61l16.92,5.92c-.13.16-.26.31-.38.48a7.69,7.69,0,0,0-1.34,4.21L14.72,44.51A34.73,34.73,0,0,1,15.86,39.61Zm15.9,14,5,13.08a7.74,7.74,0,0,0,7,4.92V84.58A35.07,35.07,0,0,1,14.28,50c0-.82,0-1.63.09-2.43Z"/><ellipse cx="49.3" cy="52.41" rx="4.76" ry="2.67"/><path d="M56.46,58.73H42.14a1.5,1.5,0,0,0,0,3H56.46a1.5,1.5,0,0,0,0-3Z"/></svg>