<svg id="Layer_1" data-name="Layer 1" xmlns="http://www.w3.org/2000/svg" viewBox="0 0 100 100"><title>Artboard 48</title><path d="M50.77,39.73a6.62,6.62,0,1,0-6.62-6.62A6.63,6.63,0,0,0,50.77,39.73Zm0-10.24a3.62,3.62,0,1,1-3.62,3.62A3.62,3.62,0,0,1,50.77,29.49Z"/><path d="M50.77,60.44a6.62,6.62,0,1,0-6.62-6.62A6.63,6.63,0,0,0,50.77,60.44Zm0-10.24a3.62,3.62,0,1,1-3.62,3.62A3.62,3.62,0,0,1,50.77,50.2Z"/><path d="M50.77,81.14a6.62,6.62,0,1,0-6.62-6.62A6.63,6.63,0,0,0,50.77,81.14Zm0-10.24a3.62,3.62,0,1,1-3.62,3.62A3.62,3.62,0,0,1,50.77,70.9Z"/><path d="M74.65,23.82a1.5,1.5,0,0,0-1.06-2.56h-12l-9.78-9.78a1.5,1.5,0,0,0-2.12,0l-9.78,9.78H27.8a1.5,1.5,0,0,0-1.06,2.56L38.91,36v6H27.8a1.5,1.5,0,0,0-1.06,2.56L38.91,56.7v6H27.8a1.5,1.5,0,0,0-1.06,2.56L38.91,77.4v7.47a1.5,1.5,0,0,0,1.5,1.5H61.12a1.5,1.5,0,0,0,1.5-1.5V77.26l12-12a1.5,1.5,0,0,0-1.06-2.56h-11V56.55l12-12A1.5,1.5,0,0,0,73.59,42h-11V35.85Zm-12,.44H70l-7.35,7.35ZM38.91,73.16l-7.49-7.49h7.49Zm0-20.71L31.42,45h7.49Zm0-20.7-7.49-7.49h7.49ZM50.77,14.66l6.6,6.6H44.17Zm8.85,68.71H41.91V65.67H59.62Zm0-20.7H41.91V45H59.62Zm0-20.71H41.91V24.26H59.62ZM70,65.67,62.62,73V65.67ZM70,45l-7.35,7.35V45Z"/></svg>