<svg id="Layer_1" data-name="Layer 1" xmlns="http://www.w3.org/2000/svg" viewBox="0 0 100 100"><title>Artboard 8</title><path d="M11.79,70.1l0,.07c1.62,3.21.18,5.33.13,5.4a1.5,1.5,0,0,0,2.41,1.79A7.89,7.89,0,0,0,15.32,71H20l-2.88,9.61a1.5,1.5,0,0,0,2,1.82L26,79.66l0,0a12.2,12.2,0,0,0,10.83,6.65H70.21a16.79,16.79,0,0,0,0-33.58h-5.5l-2.65-4.6A5.89,5.89,0,0,0,57,45.17H54.09V16.83h1.77v.6a1,1,0,0,0,.81,1l3.11.61A1,1,0,0,0,61,18V12.63a1,1,0,0,0-1.19-1l-3.11.61a1,1,0,0,0-.81,1v.6H52.59a1.5,1.5,0,0,0-1.5,1.5V45.17H46.44V37.25a1.5,1.5,0,0,0-3,0v7.92H41.86A5.91,5.91,0,0,0,36,50.56l-.18,2.2A12.21,12.21,0,0,0,26,59.36l0,0-6.86-2.77a1.5,1.5,0,0,0-2,1.82L20,68H14.15a5.13,5.13,0,0,1,.23-4.59A1.5,1.5,0,0,0,12,61.64c-.11.14-2.57,3.57-.18,8.43ZM39,50.81a2.89,2.89,0,0,1,2.86-2.64H57a2.88,2.88,0,0,1,2.49,1.44l1.79,3.1H38.84ZM23.43,69.11s0,0,0,0l-2.56-8.55,3.31,1.33.66,2.08a1.5,1.5,0,0,0,2.92-.26,9.18,9.18,0,0,1,9.08-8H70.21a13.79,13.79,0,0,1,0,27.58H36.82a9.18,9.18,0,0,1-9.08-8A1.5,1.5,0,0,0,26.39,74h-.13a1.5,1.5,0,0,0-1.43,1l-.66,2.08-3.31,1.33,2.56-8.55s0,0,0,0a1.49,1.49,0,0,0,.06-.38h0A1.49,1.49,0,0,0,23.43,69.11Z"/><path d="M68.66,75.47a6,6,0,1,0-6-6A6,6,0,0,0,68.66,75.47Zm0-8.93a3,3,0,1,1-3,3A3,3,0,0,1,68.66,66.54Z"/><circle cx="68.66" cy="60.54" r="0.98"/><circle cx="68.66" cy="78.47" r="0.98"/><circle cx="59.69" cy="69.5" r="0.98"/><circle cx="77.63" cy="69.5" r="0.98"/><circle cx="62.32" cy="63.16" r="0.98" transform="translate(-26.41 62.56) rotate(-45)"/><circle cx="75" cy="75.84" r="0.98" transform="translate(-31.66 75.24) rotate(-45)"/><circle cx="62.32" cy="75.84" r="0.98" transform="translate(-35.38 66.28) rotate(-45)"/><circle cx="75" cy="63.16" r="0.98" transform="translate(-22.7 71.53) rotate(-45)"/></svg>