<svg id="Layer_1" data-name="Layer 1" xmlns="http://www.w3.org/2000/svg" viewBox="0 0 100 100"><title>Artboard 45</title><path d="M57.49,78.73a4.9,4.9,0,1,0,4.9-4.9A4.9,4.9,0,0,0,57.49,78.73Zm6.79,0a1.9,1.9,0,1,1-1.9-1.9A1.9,1.9,0,0,1,64.28,78.73Z"/><path d="M34,78.73a4.9,4.9,0,1,0,4.9-4.9A4.9,4.9,0,0,0,34,78.73Zm6.79,0a1.9,1.9,0,1,1-1.9-1.9A1.9,1.9,0,0,1,40.8,78.73Z"/><path d="M45.75,78.73a4.9,4.9,0,1,0,4.9-4.9A4.9,4.9,0,0,0,45.75,78.73Zm6.79,0a1.9,1.9,0,1,1-1.9-1.9A1.9,1.9,0,0,1,52.54,78.73Z"/><path d="M22.27,78.73a4.9,4.9,0,1,0,4.9-4.9A4.9,4.9,0,0,0,22.27,78.73Zm6.79,0a1.9,1.9,0,1,1-1.9-1.9A1.9,1.9,0,0,1,29.06,78.73Z"/><path d="M12.2,73.16a1.5,1.5,0,0,0-1.5,1.5v3.08a1.5,1.5,0,0,0,1.5,1.5h5.63a1.5,1.5,0,0,0,1.5-1.5V71.67H69.79v6.07a1.5,1.5,0,0,0,1.5,1.5H83.05a1.5,1.5,0,0,0,1.06-2.56L72.79,65.35V59.21A12.47,12.47,0,0,0,61.42,46.8V37a1.48,1.48,0,0,0,0-.17,9.79,9.79,0,0,0,3.51-4.14,9.8,9.8,0,0,0-3.7-18.43,9.71,9.71,0,0,0-4.43.63A9.8,9.8,0,0,0,40.1,14a9.81,9.81,0,1,0-.58,17.26A9.77,9.77,0,0,0,49,35.52a9.8,9.8,0,0,0,1.4,1.19,1.5,1.5,0,0,0,0,.26v9.78H42V41.12h3.3a1.5,1.5,0,0,0,0-3H17.83a1.5,1.5,0,0,0-1.5,1.5V76.23H13.7V74.66A1.5,1.5,0,0,0,12.2,73.16Zm60.59-3v-.58l6.64,6.64H72.79ZM49.52,32.39a1.52,1.52,0,0,0-.34,0,6.75,6.75,0,0,1-7.74-3.86,1.5,1.5,0,0,0-2.26-.6,6.81,6.81,0,1,1,.43-10.64A1.5,1.5,0,0,0,42,16.81a6.8,6.8,0,0,1,12.66.56,1.5,1.5,0,0,0,2.19.8,6.8,6.8,0,1,1,6.3,12,1.5,1.5,0,0,0-.79.84,6.82,6.82,0,0,1-7,4.4,6.75,6.75,0,0,1-4.66-2.49A1.5,1.5,0,0,0,49.52,32.39Zm8.9,6.07v8.28H53.34V38.46ZM39,41.12v5.63H33.23V41.53a1.49,1.49,0,0,0-.07-.42Zm-19.65,0h11a1.49,1.49,0,0,0-.07.42v6.71a1.5,1.5,0,0,0,1.5,1.5h28.6a9.47,9.47,0,0,1,9.46,9.46v9.46H19.33Z"/><path d="M87.13,85.75h-78a1.5,1.5,0,0,0,0,3h78a1.5,1.5,0,0,0,0-3Z"/><path d="M49.62,19.78a6.09,6.09,0,0,0-6.6,5.5,1.5,1.5,0,0,0,1.36,1.63h.14A1.5,1.5,0,0,0,46,25.55a3.08,3.08,0,0,1,3.35-2.79,1.5,1.5,0,1,0,.27-3Z"/><path d="M51.08,26.86a1.5,1.5,0,0,0,2.11.19,3.08,3.08,0,0,1,4.34.39,1.5,1.5,0,1,0,2.3-1.92,6.08,6.08,0,0,0-8.56-.78A1.5,1.5,0,0,0,51.08,26.86Z"/><path d="M62.39,58H27.16a1.5,1.5,0,0,0,0,3H62.39a1.5,1.5,0,0,0,0-3Z"/></svg>