<svg id="Layer_1" data-name="Layer 1" xmlns="http://www.w3.org/2000/svg" viewBox="0 0 100 100"><title>Artboard 4</title><path d="M28.67,83.75h.71v7.18a1.5,1.5,0,0,0,1.5,1.5h6.88a1.5,1.5,0,0,0,1.5-1.5V83.75H56.38v7.18a1.5,1.5,0,0,0,1.5,1.5h6.88a1.5,1.5,0,0,0,1.5-1.5V83.75h.66a7.51,7.51,0,0,0,7.5-7.5V38.75c0-4.63-2.87-7.5-7.5-7.5H64.21a7,7,0,0,0-6.83-5.5h-1.3l3.15-7.45a5.07,5.07,0,0,0,.51,0,5.18,5.18,0,0,0,.87-.07,5.12,5.12,0,1,0-5.91-4.19h0a5.07,5.07,0,0,0,1.77,3l-3.65,8.63H43.28l3.15-7.45a5.07,5.07,0,0,0,.51,0,5.18,5.18,0,0,0,.87-.07,5.12,5.12,0,1,0-5.91-4.19h0a5.07,5.07,0,0,0,1.77,3L40,25.75h-1.8a7,7,0,0,0-6.83,5.5H28.67c-5,0-7.5,2.52-7.5,7.5v37.5A7.51,7.51,0,0,0,28.67,83.75ZM59.39,11.13a2.12,2.12,0,1,1-1.74,2.45h0A2.13,2.13,0,0,1,59.39,11.13Zm-12.79,0a2.12,2.12,0,1,1-1.74,2.45h0A2.13,2.13,0,0,1,46.59,11.13ZM36.25,89.43H32.38V83.75h3.88Zm27,0H59.38V83.75h3.88Zm-25-60.68H57.37a4,4,0,0,1,3.71,2.5H34.51A4,4,0,0,1,38.22,28.75Zm-14,10c0-2.92.72-4.5,4.5-4.5H66.92c3.72,0,4.5,2.45,4.5,4.5V58.64H24.17Zm0,22.89H71.42V76.25a4.5,4.5,0,0,1-4.5,4.5H28.67a4.5,4.5,0,0,1-4.5-4.5Z"/><path d="M34.32,76.15a4.94,4.94,0,1,0-4.94-4.94A4.94,4.94,0,0,0,34.32,76.15Zm0-6.88a1.94,1.94,0,1,1-1.94,1.94A1.94,1.94,0,0,1,34.32,69.27Z"/><path d="M61.32,76.15a4.94,4.94,0,1,0-4.94-4.94A4.94,4.94,0,0,0,61.32,76.15Zm0-6.88a1.94,1.94,0,1,1-1.94,1.94A1.94,1.94,0,0,1,61.32,69.27Z"/><path d="M44.65,67.83h6.29a1.5,1.5,0,0,0,0-3H44.65a1.5,1.5,0,1,0,0,3Z"/><path d="M44.65,72.71h6.29a1.5,1.5,0,0,0,0-3H44.65a1.5,1.5,0,1,0,0,3Z"/><path d="M44.65,77.58h6.29a1.5,1.5,0,0,0,0-3H44.65a1.5,1.5,0,0,0,0,3Z"/></svg>