<svg id="Layer_1" data-name="Layer 1" xmlns="http://www.w3.org/2000/svg" viewBox="0 0 100 100"><title>Artboard 16</title><path d="M9.93,78.27a3.84,3.84,0,0,0,3.84,3.84h8.94a3.84,3.84,0,0,0,3.84-3.84V73H72.9v5.22a3.84,3.84,0,0,0,3.84,3.84h8.94a3.84,3.84,0,0,0,3.84-3.84V61.74l2.05-7.8a8.59,8.59,0,0,0-1.38-7.26A10.6,10.6,0,0,0,87,43.77,4.76,4.76,0,0,0,91,39.08a5.39,5.39,0,0,0-5.38-5.38h-6l-2.76-4.52a9.49,9.49,0,0,0-8-4.51c-1.09-.11-12.29-1.17-19.15-1.17s-18.07,1.06-19.16,1.17a9.49,9.49,0,0,0-8,4.51L19.83,33.7h-6a5.39,5.39,0,0,0-5.38,5.38,4.76,4.76,0,0,0,3.95,4.68,10.6,10.6,0,0,0-3.17,2.91,8.59,8.59,0,0,0-1.38,7.26l2.05,7.8Zm13.62,0a.84.84,0,0,1-.84.84H13.77a.84.84,0,0,1-.84-.84V69.18A12.11,12.11,0,0,0,22.05,73h1.5Zm63,0a.84.84,0,0,1-.84.84H76.73a.84.84,0,0,1-.84-.84V73h1.5a12.11,12.11,0,0,0,9.12-3.87ZM85.58,36.7A2.38,2.38,0,0,1,88,39.08a1.77,1.77,0,0,1-1.76,1.76H84L81.45,36.7Zm-60.43-6a6.47,6.47,0,0,1,5.49-3.08h.15c.11,0,10.43-1,17.44-1.15V29a1.5,1.5,0,0,0,0,.25H45.57a1.5,1.5,0,0,0,0,3h8.3a1.5,1.5,0,0,0,0-3H51.2a1.49,1.49,0,0,0,0-.25V26.52c7,.14,17.32,1.14,17.43,1.15h.15a6.48,6.48,0,0,1,5.49,3.08L81.16,42c-7.36-.59-18.68-1.27-31.44-1.27S25.64,41.39,18.28,42ZM11.48,39.08a2.38,2.38,0,0,1,2.38-2.38H18l-2.54,4.15H13.25A1.77,1.77,0,0,1,11.48,39.08Zm.22,9.32A8.83,8.83,0,0,1,18.22,45c7.29-.59,18.68-1.29,31.5-1.29s24.21.7,31.5,1.29a8.83,8.83,0,0,1,6.51,3.42,5.65,5.65,0,0,1,.92,4.76l-3,11.47c-.83,3.13-4.3,5.4-8.25,5.4H22.05c-4,0-7.43-2.27-8.25-5.4l-3-11.47A5.65,5.65,0,0,1,11.7,48.41Z"/><path d="M36,64.15H23a1.5,1.5,0,0,0,0,3H36a1.5,1.5,0,0,0,0-3Z"/><path d="M76.42,64.15h-13a1.5,1.5,0,0,0,0,3h13a1.5,1.5,0,0,0,0-3Z"/><path d="M23,61.26H76.42a6.37,6.37,0,0,0,.09-12.74h0l-26.7-1.17h-.13l-7.24.32h-.12a1.51,1.51,0,0,0-.31,0l-19,.83h0A6.37,6.37,0,0,0,23,61.26Zm53.39-9.74A3.37,3.37,0,1,1,73,54.89,3.38,3.38,0,0,1,76.42,51.52Zm-10.33-.45,5.08.22a6.33,6.33,0,0,0-.14,7H66.09Zm-7.43-.33,4.43.19v7.33H58.66Zm-7.43-.33,4.43.19v7.65H51.22Zm-7.43.19,4.43-.19v7.84H43.79Zm-7.43.33,4.43-.19v7.52H36.36Zm-3,.13v7.19H28.42a6.33,6.33,0,0,0-.14-7ZM23,51.52a3.37,3.37,0,1,1-3.37,3.37A3.38,3.38,0,0,1,23,51.52Z"/></svg>