<svg id="Layer_1" data-name="Layer 1" xmlns="http://www.w3.org/2000/svg" viewBox="0 0 100 100"><title>Artboard 36</title><path d="M83.94,78.41A8.51,8.51,0,0,0,91,70V52.44a8.55,8.55,0,0,0-.85-3.7L82.77,33.46a8.55,8.55,0,0,0-7.65-4.8H21.8a8.51,8.51,0,0,0-8.5,8.5V70a8.5,8.5,0,0,0,8,8.47,9.32,9.32,0,0,0,18.41,0H65.52a9.32,9.32,0,0,0,18.42-.13ZM88,63.18H84.43L83,54.83H88ZM75.12,31.67a5.53,5.53,0,0,1,5,3.1l3,6.24H71.21l-2.47-9.34Zm-9.48,0L68.11,41h-11l-2.47-9.34Zm-14.05,0L54.05,41H43.16l-2.47-9.34Zm-14,0L40.05,41H28.84l-2.47-9.34ZM16.3,37.17a5.51,5.51,0,0,1,5.5-5.5h1.47L25.74,41H16.3Zm0,17.67H22l2.21,8.34H16.3ZM30.5,83.38A6.33,6.33,0,1,1,36.83,77,6.34,6.34,0,0,1,30.5,83.38Zm35-7.83H39.7a9.32,9.32,0,0,0-18.4,0,5.51,5.51,0,0,1-5-5.47V66.18h9.84a1.5,1.5,0,0,0,1.45-1.88l-3-11.34a1.5,1.5,0,0,0-1.45-1.12H16.3V44H84.54l2.92,6A5.52,5.52,0,0,1,88,51.83H81.17a1.5,1.5,0,0,0-1.48,1.76l2,11.34a1.5,1.5,0,0,0,1.48,1.24H88V70a5.51,5.51,0,0,1-4.12,5.32,9.32,9.32,0,0,0-18.37.18ZM68.38,77A6.33,6.33,0,0,1,81,76.76a1.42,1.42,0,0,0,0,.57A6.33,6.33,0,0,1,68.38,77Z"/><path d="M76.39,65.59a1.5,1.5,0,0,0,.26-1.3l-3-11.34a1.5,1.5,0,0,0-1.45-1.12H30.86a1.5,1.5,0,0,0-1.45,1.88l3,11.34a1.5,1.5,0,0,0,1.45,1.12H75.2A1.5,1.5,0,0,0,76.39,65.59ZM35,63.18l-2.21-8.34h9.46l2.21,8.34Zm12.56,0-2.21-8.34h10.9l2.21,8.34Zm14,0-2.21-8.34H71l2.21,8.34Z"/></svg>